<?xml version="1.0" standalone="no"?>
<!DOCTYPE svg PUBLIC "-//W3C//DTD SVG 1.1//EN" "http://www.w3.org/Graphics/SVG/1.1/DTD/svg11.dtd" >
<svg>
<metadata>
Created by FontForge 20110222 at Sun Apr 28 15:24:40 2013
 By Orthosie Webmaster
(URW)++, Copyright (c) 2000 by (URW)++ Design &#38; Development
</metadata>
<defs>
<font id="AcciusTOTMediumCondensed" horiz-adv-x="367" >
  <font-face 
    font-family="AcciusTOTMediumCondensed"
    font-weight="500"
    font-stretch="condensed"
    units-per-em="1000"
    panose-1="2 0 0 0 0 0 0 0 0 0"
    ascent="800"
    descent="-200"
    x-height="513"
    cap-height="667"
    bbox="-97 -250 710 880"
    underline-thickness="70"
    underline-position="-29"
    unicode-range="U+0020-FB02"
  />
<missing-glyph horiz-adv-x="185" 
 />
    <glyph glyph-name="fi" unicode="fi" horiz-adv-x="327" 
d="M170 446h-43v-446h-77v446h-43v67h43v74q0 39 4.5 54t20.5 24q15 8 67 8h28v-67h-15q-28 0 -28 -32v-61h43v-67zM289 667v-106h-77v106h77zM289 513v-513h-77v513h77z" />
    <glyph glyph-name="fl" unicode="fl" horiz-adv-x="327" 
d="M170 446h-43v-446h-77v446h-43v67h43v74q0 39 4.5 54t20.5 24q15 8 67 8h28v-67h-15q-28 0 -28 -32v-61h43v-67zM289 667v-667h-77v667h77z" />
    <glyph glyph-name=".notdef" horiz-adv-x="185" 
 />
    <glyph glyph-name=".null" horiz-adv-x="0" 
 />
    <glyph glyph-name="nonmarkingreturn" horiz-adv-x="333" 
 />
    <glyph glyph-name="space" unicode=" " horiz-adv-x="185" 
 />
    <glyph glyph-name="space" unicode="&#xa0;" horiz-adv-x="185" 
 />
    <glyph glyph-name="exclam" unicode="!" horiz-adv-x="197" 
d="M118 213h-39l-19 195v259h77v-254zM137 127v-127h-77v127h77z" />
    <glyph glyph-name="quotedbl" unicode="&#x22;" horiz-adv-x="297" 
d="M117 426h-58l-12 241h82zM239 426h-58l-12 241h82z" />
    <glyph glyph-name="numbersign" unicode="#" 
d="M29 0l33 188h-40l10 54h39l31 173h-43l11 53h41l35 199h52l-35 -199h90l34 199h55l-35 -199h39l-9 -53h-40l-30 -173h43l-9 -54h-44l-33 -188h-53l33 188h-89l-33 -188h-53zM244 415h-90l-30 -173h89z" />
    <glyph glyph-name="dollar" unicode="$" 
d="M302 459h-77v48q0 73 -48 73q-22 0 -35 -14t-13 -38q0 -55 57 -128l39 -50q51 -66 71.5 -112t20.5 -95q0 -70 -34 -109q-25 -29 -89 -44v-67h-41v67q-61 18 -81.5 52.5t-20.5 117.5v71h77v-71q0 -102 54 -102q25 0 39.5 21t14.5 57q0 70 -42 118l-41 49q-47 55 -75 115
t-28 105q0 103 103 124v54h41v-54q61 -11 84.5 -41.5t23.5 -98.5v-48z" />
    <glyph glyph-name="percent" unicode="%" horiz-adv-x="529" 
d="M181 572v-166q0 -50 -11 -69q-17 -30 -66 -30q-43 0 -63 26q-14 19 -14 71v169q0 52 14 71q20 26 63 26q49 0 66 -30q11 -19 11 -68zM77 571v-164q0 -37 5 -47.5t22 -10.5t22 10.5t5 47.5v164q0 37 -5 47t-22 10t-22 -10t-5 -47zM430 667l-301 -667h-34l301 667h34z
M501 261v-166q0 -50 -11 -69q-17 -30 -66 -30q-44 0 -63 26q-14 19 -14 72v168q0 53 14 72q19 26 63 26q49 0 66 -30q11 -19 11 -69zM397 260v-164q0 -37 5 -47.5t22 -10.5t22 10.5t5 47.5v164q0 37 -5 47.5t-22 10.5t-22 -10.5t-5 -47.5z" />
    <glyph glyph-name="ampersand" unicode="&#x26;" horiz-adv-x="430" 
d="M319 338h74q0 -106 -51 -224q29 -29 76 -44v-81q-70 6 -123 56q-43 -49 -110 -49q-64 0 -105.5 50.5t-41.5 129.5q0 52 18.5 94.5t63.5 96.5q-32 64 -32 143q0 73 36 119t94 46q49 0 78.5 -32t29.5 -86q0 -69 -55 -138l-55 -66q14 -41 67 -150q3 -5 7 -15q20 51 29 150z
M182 431q41 51 54.5 77t13.5 54q0 21 -9.5 33t-25.5 12q-22 0 -35 -22t-13 -59q0 -39 15 -95zM156 286q-39 -52 -39 -105q0 -44 20.5 -74.5t51.5 -30.5q29 0 52 30q-1 3 -43 83q-18 33 -42 97z" />
    <glyph glyph-name="quotesingle" unicode="'" horiz-adv-x="175" 
d="M117 426h-58l-12 241h82z" />
    <glyph glyph-name="parenleft" unicode="(" horiz-adv-x="283" 
d="M263 -132l-23 -28q-95 61 -146 172t-51 258q0 148 51 259.5t146 170.5l23 -28q-64 -60 -86 -120q-43 -111 -43 -282t43 -282q23 -61 86 -120z" />
    <glyph glyph-name="parenright" unicode=")" horiz-adv-x="283" 
d="M20 672l23 28q95 -61 146 -172t51 -258q0 -148 -51 -259.5t-146 -170.5l-23 28q64 60 86 120q43 112 43 282t-43 282q-22 60 -86 120z" />
    <glyph glyph-name="asterisk" unicode="*" 
d="M149 581v92h69v-92l88 29l21 -65l-88 -29l54 -75l-55 -40l-54 75l-55 -75l-55 40l54 75l-88 29l21 65z" />
    <glyph glyph-name="plus" unicode="+" 
d="M33 357h117v116h68v-116h115v-67h-115v-117h-68v117h-117v67z" />
    <glyph glyph-name="comma" unicode="," horiz-adv-x="170" 
d="M124 120v-101q0 -67 -28 -106q-21 -30 -49 -37v21q34 18 36 72l-1 4l-2 27h-33v120h77z" />
    <glyph glyph-name="hyphen" unicode="-" horiz-adv-x="125" 
d="M125 296v-79h-125v79h125z" />
    <glyph glyph-name="hyphen" unicode="&#xad;" horiz-adv-x="125" 
d="M125 296v-79h-125v79h125z" />
    <glyph glyph-name="period" unicode="." horiz-adv-x="170" 
d="M124 120v-120h-77v120h77z" />
    <glyph glyph-name="slash" unicode="/" horiz-adv-x="361" 
d="M307 667l-221 -827h-73l221 827h73z" />
    <glyph glyph-name="zero" unicode="0" 
d="M320 478v-303q0 -93 -19 -128q-30 -54 -117 -54q-79 0 -112 48q-14 20 -19.5 48t-5.5 84v308q0 95 25 131q33 48 112 48q87 0 117 -54q19 -35 19 -128zM128 477v-300q0 -76 9 -91q13 -25 47 -25q35 0 48 27q7 14 7 89v300q0 74 -9 91q-13 24 -46 24q-36 0 -49 -27
q-7 -17 -7 -88z" />
    <glyph glyph-name="one" unicode="1" 
d="M233 647v-647h-81v486h-73v67q35 0 63.5 26.5t35.5 67.5h55z" />
    <glyph glyph-name="two" unicode="2" 
d="M310 77v-77h-266v11q0 77 26 137q14 34 26 54t52 75l32 47q31 44 38.5 65.5t7.5 62.5v59q0 43 -11 60.5t-39 17.5q-26 0 -38 -16q-13 -14 -13 -59v-85h-81v83q0 79 24 107q35 38 113 38q83 0 113 -51q16 -29 16 -94v-60q0 -50 -12.5 -84t-52.5 -91l-39 -57
q-66 -84 -73 -143h177z" />
    <glyph glyph-name="three" unicode="3" 
d="M126 503h-81v39q0 118 130 118q62 0 93 -28q29 -25 29 -83v-67q0 -53 -11.5 -73.5t-48.5 -33.5q42 -12 56.5 -38t14.5 -90v-107q0 -86 -28 -114q-33 -33 -103 -33q-66 0 -102 31q-30 26 -30 92v85h81v-74q0 -36 11 -51t38 -15q28 0 40 15t12 51v126q0 37 -19 54t-62 17
h-37v79h26q81 0 81 66v70q0 29 -5 39q-9 18 -39 18q-26 0 -36 -14t-10 -50v-29z" />
    <glyph glyph-name="four" unicode="4" 
d="M332 138h-47v-138h-81v138h-183v71l142 438h122v-438h47v-71zM210 209v344l-106 -344h106z" />
    <glyph glyph-name="five" unicode="5" 
d="M295 570h-162v-121q43 26 78 26q31 0 55 -12.5t35 -32.5q13 -27 13 -91v-198q0 -53 -5.5 -75t-22.5 -39q-34 -34 -98 -34q-70 0 -105 32q-31 27 -31 101v82h81v-89q0 -58 48 -58q30 0 43 19q9 13 9 55v196q0 40 -8 53q-12 19 -43 19q-53 0 -53 -54v-18h-77v316h243v-77z
" />
    <glyph glyph-name="six" unicode="6" 
d="M320 457h-81v61q0 37 -12.5 54t-41.5 17q-26 0 -38 -17t-12 -54v-161q38 35 81 35q63 0 88 -45q16 -28 16 -84v-131q0 -76 -34 -107q-37 -32 -101 -32q-62 0 -97 32q-20 18 -27 43.5t-7 78.5v342q0 66 4.5 88t21.5 42q35 41 108 41q82 0 113 -49q19 -28 19 -93v-61z
M132 244v-107q0 -44 11 -60t40 -16q30 0 41 16t11 60v107q0 44 -11 60.5t-41 16.5q-29 0 -40 -16.5t-11 -60.5z" />
    <glyph glyph-name="seven" unicode="7" 
d="M52 647h250v-77q-48 -109 -74 -227q-41 -182 -41 -330q0 -6 1 -13h-97q17 342 136 570h-175v77z" />
    <glyph glyph-name="eight" unicode="8" 
d="M312 521v-46q0 -67 -11.5 -92t-51.5 -42q40 -13 54.5 -38t14.5 -84v-76q0 -80 -28 -109q-38 -41 -107 -41t-107 41q-28 29 -28 109v76q0 59 14.5 84t54.5 38q-40 17 -51.5 42t-11.5 92v46q0 72 31 105.5t98 33.5t98 -33.5t31 -105.5zM135 536v-101q0 -31 11 -45t37 -14
t37 14t11 45v101q0 32 -11 46t-37 14t-37 -14t-11 -46zM129 240v-116q0 -36 11.5 -49.5t42.5 -13.5q30 0 42 14t12 49v116q0 35 -12 49t-42 14q-31 0 -42.5 -13.5t-11.5 -49.5z" />
    <glyph glyph-name="nine" unicode="9" 
d="M47 196h81v-61q0 -71 54 -71q26 0 38 17t12 54v161q-38 -35 -81 -35q-63 0 -88 45q-16 27 -16 84v132q0 76 34 106q37 32 101 32q62 0 96 -32q20 -18 27.5 -43.5t7.5 -78.5v-342q0 -66 -4.5 -88t-21.5 -42q-35 -41 -108 -41q-82 0 -113 49q-19 29 -19 93v61zM235 409v108
q0 43 -11 59t-40 16q-30 0 -41 -16t-11 -59v-108q0 -44 11 -60.5t40 -16.5q30 0 41 16.5t11 60.5z" />
    <glyph glyph-name="colon" unicode=":" horiz-adv-x="170" 
d="M124 507v-120h-77v120h77zM124 120v-120h-77v120h77z" />
    <glyph glyph-name="semicolon" unicode=";" horiz-adv-x="171" 
d="M125 507v-120h-78v120h78zM125 120v-101q0 -67 -28 -106q-22 -30 -50 -37v21q33 23 33 76v27h-33v120h78z" />
    <glyph glyph-name="less" unicode="&#x3c;" horiz-adv-x="500" 
d="M466 574v-76l-351 -161l351 -161v-76l-433 204v66z" />
    <glyph glyph-name="equal" unicode="=" 
d="M33 423h300v-67h-300v67zM33 290h300v-67h-300v67z" />
    <glyph glyph-name="greater" unicode="&#x3e;" horiz-adv-x="500" 
d="M34 99v77l351 161l-351 161v76l433 -204v-67z" />
    <glyph glyph-name="question" unicode="?" horiz-adv-x="311" 
d="M170 210h-68q0 50 6 78t27 71l28 60q30 64 30 118q0 66 -45 66q-25 0 -35.5 -19.5t-10.5 -64.5v-37h-72v47q0 69 24 103q31 42 95 42q57 0 91.5 -38t34.5 -101q0 -69 -45 -153l-24 -45q-22 -41 -27 -60t-9 -67zM174 127v-127h-72v127h72z" />
    <glyph glyph-name="at" unicode="@" 
d="M337 177h-52l-9 27q-27 -37 -61 -37q-65 0 -65 83v188q0 43 18.5 67t51.5 24q27 0 49 -26v22q0 41 -23.5 66t-61.5 25t-64 -29q-23 -27 -23 -92v-311q0 -61 16 -88q24 -45 75 -45q46 0 81 44l41 -46q-46 -59 -122 -59q-71 0 -112 41q-46 46 -46 131v348q0 80 40 123.5
t114 43.5q72 0 112.5 -43t40.5 -119v-338zM219 422v-151q0 -21 5.5 -29.5t19.5 -8.5t19.5 8.5t5.5 29.5v151q0 21 -5.5 29.5t-19.5 8.5t-19.5 -8.5t-5.5 -29.5z" />
    <glyph glyph-name="A" unicode="A" horiz-adv-x="332" 
d="M211 125h-97l-16 -125h-85l92 667h106l107 -667h-87zM200 208l-27 222q-2 23 -8 67q-3 25 -5 55q-2 -32 -5 -53q-2 -23 -8 -69l-23 -222h76z" />
    <glyph glyph-name="B" unicode="B" horiz-adv-x="352" 
d="M310 531v-69q0 -60 -12 -80t-53 -30q41 -8 54 -27q7 -11 9 -24t2 -56v-117q0 -78 -25.5 -103t-104.5 -25h-135v667h155q68 0 89 -26t21 -110zM135 584v-195h51q24 0 30.5 11.5t6.5 52.5v67q0 41 -6.5 52.5t-30.5 11.5h-51zM135 314v-231h51q24 0 30.5 11.5t6.5 52.5v103
q0 41 -6.5 52.5t-30.5 11.5h-51z" />
    <glyph glyph-name="C" unicode="C" horiz-adv-x="360" 
d="M325 280v-82q0 -71 -5.5 -99t-24.5 -54q-39 -55 -114 -55t-114 55q-18 27 -23.5 54.5t-5.5 98.5v271q0 70 5.5 98.5t23.5 54.5q39 55 114 55q74 0 114 -55q18 -26 24 -55.5t6 -97.5v-42h-91v89q0 46 -12 65t-41 19t-41 -19t-12 -65v-365q0 -46 12 -65t41 -19t41 19t12 65
v129h91z" />
    <glyph glyph-name="D" unicode="D" horiz-adv-x="350" 
d="M45 667h157q64 0 87 -23.5t23 -90.5v-439q0 -66 -23 -90t-87 -24h-157v667zM135 584v-501h43q26 0 35 11.5t9 46.5v385q0 35 -9 46.5t-35 11.5h-43z" />
    <glyph glyph-name="E" unicode="E" horiz-adv-x="291" 
d="M251 306h-116v-223h130v-83h-220v667h220v-83h-130v-195h116v-83z" />
    <glyph glyph-name="F" unicode="F" horiz-adv-x="293" 
d="M262 306h-127v-306h-90v667h230v-83h-140v-195h127v-83z" />
    <glyph glyph-name="G" unicode="G" horiz-adv-x="340" 
d="M174 358h127v-358h-51l-9 27q-38 -37 -82 -37q-31 0 -58 15t-41 40q-22 40 -22 132v311q0 56 6 84.5t22 52.5q35 52 107 52q35 0 64 -14.5t41 -38.5q15 -30 15 -105v-60h-82v77q0 34 -9 49t-30 15q-25 0 -34.5 -17.5t-9.5 -63.5v-345q2 -58 3.5 -70t6.5 -19
q10 -18 33 -18q22 0 31 15t9 51v142h-37v83z" />
    <glyph glyph-name="H" unicode="H" horiz-adv-x="347" 
d="M212 315h-77v-315h-90v667h90v-269h77v269h90v-667h-90v315z" />
    <glyph glyph-name="I" unicode="I" horiz-adv-x="181" 
d="M135 667v-667h-90v667h90z" />
    <glyph glyph-name="J" unicode="J" horiz-adv-x="283" 
d="M7 0v79q49 -12 86 -12q32 0 44.5 16.5t12.5 61.5v522h90v-512q0 -52 -7 -79.5t-26 -48.5q-34 -37 -110 -37q-56 0 -90 10z" />
    <glyph glyph-name="K" unicode="K" horiz-adv-x="345" 
d="M209 336l129 -336h-87l-116 302v-302h-90v667h90v-297l93 297h88z" />
    <glyph glyph-name="L" unicode="L" horiz-adv-x="289" 
d="M135 667v-584h143v-83h-233v667h90z" />
    <glyph glyph-name="M" unicode="M" horiz-adv-x="481" 
d="M277 0h-72l-61 423l-13 93q0 3 -1 8t-2.5 14t-2.5 16q2 -51 2 -127v-427h-82v667h124l60 -357q8 -46 12 -122q8 92 13 124l51 355h130v-667h-82v423q0 29 1 66l1 65q-13 -82 -14 -92l-12 -88z" />
    <glyph glyph-name="N" unicode="N" horiz-adv-x="369" 
d="M324 0h-99l-114 516q2 -33 3 -43l4 -62q2 -22 2 -42l9 -369h-84v667h93l97 -406q6 -30 8 -38q3 -10 7 -37q2 -7 5 -23q-2 28 -2 38q-2 27 -6 83q-2 38 -2 51l-8 332h87v-667z" />
    <glyph glyph-name="O" unicode="O" horiz-adv-x="363" 
d="M325 469v-271q0 -71 -5.5 -99t-24.5 -54q-38 -55 -114 -55q-75 0 -114 55q-18 26 -23.5 54.5t-5.5 98.5v271q0 70 5.5 98.5t23.5 54.5q39 55 114 55q76 0 114 -55q19 -26 24.5 -54t5.5 -99zM128 516v-365q0 -46 12 -65t41 -19q30 0 42 18.5t12 65.5v365q0 47 -12 65.5
t-42 18.5q-29 0 -41 -19t-12 -65z" />
    <glyph glyph-name="P" unicode="P" horiz-adv-x="332" 
d="M135 300v-300h-90v667h165q41 0 58 -6t28 -24q14 -23 14 -93v-126q0 -46 -4 -65t-17 -32q-20 -21 -82 -21h-72zM135 584v-201h53q20 0 26 7.5t6 31.5v123q0 24 -6 31.5t-26 7.5h-53z" />
    <glyph glyph-name="Q" unicode="Q" horiz-adv-x="363" 
d="M303 -120h-25q-72 0 -100.5 24.5t-31.5 89.5q-38 10 -62 32q-31 30 -41 75q-5 27 -5 97v271q0 70 5.5 98.5t23.5 54.5q39 55 114 55q76 0 114 -55q19 -26 24.5 -54t5.5 -99v-271q0 -93 -14 -126q-26 -58 -86 -75q1 -25 9 -35q5 -8 13 -10t35 -2h21v-70zM128 516v-365
q0 -46 12.5 -65t41.5 -19t41 19t12 65v365q0 46 -12 65t-41 19t-41.5 -19t-12.5 -65z" />
    <glyph glyph-name="R" unicode="R" horiz-adv-x="351" 
d="M45 667h149q37 0 53.5 -4t30.5 -15q32 -28 32 -134v-49q0 -68 -14 -93.5t-54 -32.5q24 -7 33.5 -13t16.5 -19q18 -30 18 -108v-83q0 -68 17 -116h-93q-14 48 -14 129v60q0 64 -10 90.5t-35 26.5h-40v-306h-90v667zM135 584v-203h53q20 0 26 13t6 57v63q0 44 -6 57t-26 13
h-53z" />
    <glyph glyph-name="S" unicode="S" horiz-adv-x="308" 
d="M277 445h-82v112q0 26 -8 37t-27 11q-41 0 -41 -57q0 -72 56 -155l41 -61q67 -101 67 -187q0 -72 -34.5 -113.5t-94.5 -41.5q-80 0 -110 59q-18 35 -18 104v91h82v-103q0 -44 9.5 -61.5t32.5 -17.5q43 0 43 70q0 46 -13.5 82.5t-51.5 91.5l-27 38q-70 98 -70 184
q0 73 34.5 111t99.5 38q69 0 97 -46q15 -26 15 -94v-92z" />
    <glyph glyph-name="T" unicode="T" horiz-adv-x="305" 
d="M197 584v-584h-90v584h-104v83h298v-83h-104z" />
    <glyph glyph-name="U" unicode="U" horiz-adv-x="371" 
d="M329 667v-469q0 -71 -5.5 -99t-24.5 -54q-38 -55 -114 -55q-75 0 -114 55q-18 26 -23.5 54.5t-5.5 98.5v469h90v-516q0 -46 12 -65t41 -19q30 0 42 18.5t12 65.5v516h90z" />
    <glyph glyph-name="V" unicode="V" horiz-adv-x="335" 
d="M321 667l-101 -667h-103l-104 667h88l57 -429q4 -30 11 -115q11 108 12 114l53 430h87z" />
    <glyph glyph-name="W" unicode="W" horiz-adv-x="467" 
d="M455 667l-71 -667h-102l-40 357q-7 73 -10 117q-5 -101 -6 -117l-30 -357h-102l-82 667h88l39 -412q1 -24 8 -123l3 61q0 13 1 27.5t1.5 24t0.5 10.5l37 412h81l49 -426q3 -22 10 -109q2 48 2 50q4 72 4 73l31 412h88z" />
    <glyph glyph-name="X" unicode="X" horiz-adv-x="333" 
d="M212 345l108 -345h-90l-47 152q-7 22 -20 82q-3 -28 -18 -82l-45 -152h-87l101 345l-101 322h87l47 -147q12 -42 17 -72q3 33 14 72l40 147h88z" />
    <glyph glyph-name="Y" unicode="Y" horiz-adv-x="300" 
d="M192 273v-273h-90v273l-105 394h91l37 -152q15 -62 24 -116q8 52 25 116l42 152h88z" />
    <glyph glyph-name="Z" unicode="Z" horiz-adv-x="293" 
d="M259 83v-83h-238v60l153 524h-119v83h215v-58l-154 -526h143z" />
    <glyph glyph-name="bracketleft" unicode="[" horiz-adv-x="283" 
d="M253 667v-50h-126v-727h126v-50h-200v827h200z" />
    <glyph glyph-name="backslash" unicode="\" horiz-adv-x="361" 
d="M53 667h73l221 -827h-72z" />
    <glyph glyph-name="bracketright" unicode="]" horiz-adv-x="283" 
d="M30 -160v50h126v727h-126v50h200v-827h-200z" />
    <glyph glyph-name="asciicircum" unicode="^" horiz-adv-x="500" 
d="M107 363h-83l176 306h101l175 -306h-83l-143 245z" />
    <glyph glyph-name="underscore" unicode="_" horiz-adv-x="500" 
d="M0 -64h500v-70h-500v70z" />
    <glyph glyph-name="grave" unicode="`" horiz-adv-x="500" 
d="M226 698l56 -116h-46l-98 116h88z" />
    <glyph glyph-name="a" unicode="a" horiz-adv-x="297" 
d="M273 0h-82q-7 27 -11 41q-30 -48 -75 -48q-46 0 -63 33q-11 23 -11 76v63q0 44 11 65t45 43l60 38q24 14 29 22t5 29v55q0 39 -33 39q-22 0 -33 -14q-7 -8 -7 -40v-54h-77v62q0 52 24 77q31 33 89 33q60 0 91 -34q23 -24 23 -84v-320q0 -44 15 -82zM181 252l-48 -35
q-16 -12 -20.5 -24t-4.5 -41v-45q0 -49 31 -49q17 0 29.5 19.5t12.5 47.5v127z" />
    <glyph glyph-name="b" unicode="b" horiz-adv-x="299" 
d="M39 667h77v-190q28 43 72 43q52 0 69 -41q9 -20 9 -88v-271q0 -57 -15 -83q-24 -44 -78 -44q-51 0 -73 52q-9 -22 -16 -45h-45v667zM116 387v-261q0 -38 7.5 -51.5t29.5 -13.5q21 0 28.5 13.5t7.5 51.5v261q0 38 -7.5 51.5t-28.5 13.5q-22 0 -29.5 -13.5t-7.5 -51.5z" />
    <glyph glyph-name="c" unicode="c" horiz-adv-x="289" 
d="M184 204h77v-74q0 -46 -4.5 -67t-18.5 -37q-30 -33 -90 -33q-61 0 -91 33q-14 16 -18.5 36t-4.5 68v253q0 48 4.5 68t18.5 36q30 33 91 33q60 0 90 -33q14 -16 18.5 -37t4.5 -67v-55h-77v62q0 38 -7.5 52t-29.5 14q-21 0 -28.5 -14t-7.5 -52v-267q0 -37 8 -51t29 -14
t28.5 13.5t7.5 51.5v81z" />
    <glyph glyph-name="d" unicode="d" horiz-adv-x="299" 
d="M261 667v-667h-77v36q-25 -43 -68 -43q-45 0 -68 33q-9 13 -11.5 27t-2.5 51v293q0 60 12 84q21 39 68 39q36 0 70 -43v190h77zM111 387v-261q0 -38 7.5 -51.5t28.5 -13.5q22 0 29.5 13.5t7.5 51.5v261q0 38 -7.5 51.5t-28.5 13.5q-22 0 -29.5 -13.5t-7.5 -51.5z" />
    <glyph glyph-name="e" unicode="e" horiz-adv-x="295" 
d="M184 191h77v-60q0 -48 -4.5 -68.5t-18.5 -36.5q-30 -33 -90 -33q-61 0 -91 33q-14 16 -18.5 36.5t-4.5 68.5v252q0 48 4.5 68t18.5 36q30 33 91 33q60 0 90 -33q14 -16 18.5 -36.5t4.5 -67.5v-144h-150v-118q0 -37 7.5 -50t29.5 -13q21 0 28.5 13t7.5 50v70zM111 302h73
v88q0 38 -7.5 51.5t-28.5 13.5q-22 0 -29.5 -13.5t-7.5 -51.5v-88z" />
    <glyph glyph-name="f" unicode="f" horiz-adv-x="173" 
d="M170 446h-43v-446h-77v446h-43v67h43v74q0 39 4.5 54t20.5 24q15 8 67 8h28v-67h-15q-28 0 -28 -32v-61h43v-67z" />
    <glyph glyph-name="g" unicode="g" horiz-adv-x="299" 
d="M261 513v-550q0 -63 -28 -91q-32 -32 -85 -32q-42 0 -73 20t-38 53q-3 9 -3 32h77q1 -40 35 -40q38 0 38 40v85q-27 -37 -73 -37q-42 0 -64 35q-13 22 -13 84v289q0 57 12 82q19 37 66 37q40 0 72 -43v36h77zM111 387v-261q0 -38 7.5 -51.5t28.5 -13.5q22 0 29.5 13.5
t7.5 51.5v261q0 38 -7.5 51.5t-28.5 13.5q-22 0 -29.5 -13.5t-7.5 -51.5z" />
    <glyph glyph-name="h" unicode="h" horiz-adv-x="304" 
d="M116 667v-188q34 41 74 41q47 0 66 -41q10 -24 10 -77v-402h-77v387q0 38 -7.5 51.5t-29.5 13.5q-21 0 -28.5 -13.5t-7.5 -51.5v-387h-77v667h77z" />
    <glyph glyph-name="i" unicode="i" horiz-adv-x="154" 
d="M116 667v-106h-77v106h77zM116 513v-513h-77v513h77z" />
    <glyph glyph-name="j" unicode="j" horiz-adv-x="154" 
d="M116 644v-106h-77v106h77zM116 513v-521q0 -62 -5 -86.5t-22 -41.5q-25 -24 -95 -24h-15v68q14 -1 22 -1q27 0 33 13q4 8 5 72v521h77z" />
    <glyph glyph-name="k" unicode="k" horiz-adv-x="281" 
d="M39 667h77v-359l76 205h81l-88 -196l88 -317h-81l-60 230l-16 -36v-194h-77v667z" />
    <glyph glyph-name="l" unicode="l" horiz-adv-x="154" 
d="M116 667v-667h-77v667h77z" />
    <glyph glyph-name="m" unicode="m" horiz-adv-x="454" 
d="M39 513h77v-34q31 41 71 41q47 0 71 -50q31 50 81 50q43 0 63 -32q14 -24 14 -103v-385h-77v387q0 38 -7.5 51.5t-29.5 13.5q-21 0 -28.5 -13.5t-7.5 -51.5v-387h-77v387q0 38 -7.5 51.5t-29.5 13.5q-21 0 -28.5 -13.5t-7.5 -51.5v-387h-77v513z" />
    <glyph glyph-name="n" unicode="n" horiz-adv-x="304" 
d="M116 513v-34q33 41 74 41q48 0 66 -41q10 -24 10 -77v-402h-77v387q0 38 -7.5 51.5t-29.5 13.5q-21 0 -28.5 -13.5t-7.5 -51.5v-387h-77v513h77z" />
    <glyph glyph-name="o" unicode="o" horiz-adv-x="295" 
d="M261 389v-258q0 -48 -4.5 -68.5t-18.5 -36.5q-30 -33 -90 -33q-61 0 -91 33q-14 16 -18.5 37t-4.5 68v267q0 59 30 90.5t86 31.5q62 0 90 -37q13 -17 17 -35t4 -59zM111 390v-267q0 -38 7.5 -51.5t28.5 -13.5q22 0 29.5 13.5t7.5 51.5v267q0 38 -7.5 51.5t-28.5 13.5
q-22 0 -29.5 -13.5t-7.5 -51.5z" />
    <glyph glyph-name="p" unicode="p" horiz-adv-x="299" 
d="M39 -160v673h77v-36q25 43 68 43q45 0 68 -33q9 -13 11.5 -27t2.5 -51v-293q0 -41 -2 -55t-10 -29q-20 -39 -68 -39q-36 0 -70 43v-196h-77zM189 127v260q0 38 -7.5 51.5t-28.5 13.5q-22 0 -29.5 -13.5t-7.5 -51.5v-261q0 -38 7.5 -51.5t28.5 -13.5q22 0 29.5 14t7.5 52z
" />
    <glyph glyph-name="q" unicode="q" horiz-adv-x="299" 
d="M261 -160h-77v196q-28 -43 -73 -43q-50 0 -69 41q-6 14 -7 25t-1 63v271q0 57 15 83q24 44 78 44q50 0 73 -51q9 21 16 44h45v-673zM184 127v260q0 37 -8 51t-29 14q-24 0 -32 -19q-4 -10 -4 -47v-260q0 -34 5 -46q6 -19 31 -19q22 0 29.5 14t7.5 52z" />
    <glyph glyph-name="r" unicode="r" horiz-adv-x="219" 
d="M116 513v-58q19 34 36.5 47.5t42.5 13.5q7 0 21 -3v-84q-25 14 -44 14q-56 0 -56 -76v-367h-77v513h77z" />
    <glyph glyph-name="s" unicode="s" horiz-adv-x="271" 
d="M247 361h-73v25q0 65 -39 65q-36 0 -36 -46q0 -48 35 -80l40 -37q44 -41 61 -76t17 -84q0 -64 -30.5 -99.5t-86.5 -35.5q-116 0 -116 158v39h73v-39q0 -49 10 -69t35 -20q41 0 41 60q0 48 -40 89l-35 34q-45 45 -61 76.5t-16 73.5q0 60 29 92.5t84 32.5q56 0 82 -32
t26 -102v-25z" />
    <glyph glyph-name="t" unicode="t" horiz-adv-x="187" 
d="M127 620v-107h43v-67h-43v-353q0 -22 7 -28t33 -7l7 -1v-57q-28 -7 -46 -7q-40 0 -62 20q-16 16 -16 65v368h-43v67h43v107h77z" />
    <glyph glyph-name="u" unicode="u" horiz-adv-x="304" 
d="M189 0v34q-29 -41 -75 -41q-48 0 -66 41q-9 23 -9 77v402h77v-387q0 -38 7.5 -51.5t29.5 -13.5q21 0 28.5 14t7.5 52v386h77v-513h-77z" />
    <glyph glyph-name="v" unicode="v" horiz-adv-x="273" 
d="M260 513l-79 -513h-91l-77 513h77l33 -273q2 -11 5 -43l5 -50q0 -6 3 -30q4 73 10 123l35 273h79z" />
    <glyph glyph-name="w" unicode="w" horiz-adv-x="376" 
d="M304 0h-87l-23 189q-4 41 -8 135q-5 -99 -9 -135l-25 -189h-85l-60 513h74l23 -264q2 -17 3 -61q0 -4 0.5 -14t1.5 -25.5t1 -28.5q3 28 8 74q3 41 6 55l35 264h58l31 -264q3 -24 5 -48q0 -5 1.5 -17t3.5 -30t4 -34q4 62 4 70q1 11 2 25.5t1.5 22t0.5 11.5l23 264h77z" />
    <glyph glyph-name="x" unicode="x" horiz-adv-x="282" 
d="M185 276l91 -276h-80l-35 138q-7 22 -8 29q0 2 -1 6t-3.5 14.5t-5.5 23.5q-9 -40 -18 -73l-42 -138h-76l87 276l-77 237h77l27 -96q15 -53 22 -94q7 49 17 94l25 96h76z" />
    <glyph glyph-name="y" unicode="y" horiz-adv-x="256" 
d="M252 513l-91 -564q-11 -64 -32 -86.5t-70 -22.5h-28h-8v77q5 -1 14 -1q26 0 35.5 14.5t9.5 55.5q0 32 -4 58l-75 469h77l25 -203q9 -72 24 -202q4 40 4 41q4 58 7 87q5 53 7 72l26 205h79z" />
    <glyph glyph-name="z" unicode="z" horiz-adv-x="271" 
d="M254 513v-73l-152 -367h152v-73h-237v73l152 367h-121v73h206z" />
    <glyph glyph-name="braceleft" unicode="{" horiz-adv-x="316" 
d="M188 525v-159q0 -48 -12 -72.5t-43 -40.5q31 -17 43 -43t12 -73v-151q0 -55 19.5 -74.5t75.5 -21.5v-50q-60 1 -85.5 6t-43.5 19q-39 33 -39 124v145q0 44 -13 65t-44 30v51q31 8 44 29t13 62v161q0 84 46 114q27 19 122 21v-50q-56 -2 -75.5 -21t-19.5 -71z" />
    <glyph glyph-name="bar" unicode="|" horiz-adv-x="500" 
d="M212 667h77v-834h-77v834z" />
    <glyph glyph-name="braceright" unicode="}" horiz-adv-x="316" 
d="M128 -14v151q0 47 12 73t43 43q-31 16 -43 40.5t-12 72.5v159q0 52 -19.5 71t-75.5 21v50q61 -2 85.5 -6.5t41.5 -17.5q41 -31 41 -111v-161q0 -41 13 -62t44 -29v-51q-32 -9 -44.5 -30t-12.5 -65v-145q0 -96 -45 -128q-27 -20 -123 -21v50q56 2 75.5 21.5t19.5 74.5z
" />
    <glyph glyph-name="asciitilde" unicode="~" horiz-adv-x="667" 
d="M138 581l-45 29q32 65 62.5 91t75.5 26q38 0 111 -34q68 -32 97 -32q28 0 47 15t42 53l46 -27q-27 -55 -56 -80q-39 -34 -89 -34q-21 0 -47 9t-93 39q-39 17 -64 17q-26 0 -46 -16.5t-41 -55.5z" />
    <glyph glyph-name="exclamdown" unicode="&#xa1;" horiz-adv-x="197" 
d="M79 300h39l19 -194v-259h-77v254zM60 386v127h77v-127h-77z" />
    <glyph glyph-name="cent" unicode="&#xa2;" 
d="M221 305h77v-87q0 -58 -21.5 -87t-71.5 -40v-61h-39v61q-43 4 -70 30q-26 23 -26 97v277q0 46 6.5 67t25.5 36q28 21 64 24v55h39v-55q50 -10 71.5 -39.5t21.5 -87.5v-68h-77v68q0 37 -7.5 49.5t-29.5 12.5t-29.5 -13t-7.5 -49v-277q0 -36 8 -49t30 -13t29 12t7 49v88z
" />
    <glyph glyph-name="sterling" unicode="&#xa3;" 
d="M181 350h97v-62h-74q11 -42 11 -76q0 -49 -25 -113q56 -31 76 -31q33 0 33 59v61h77v-61q0 -62 -18 -90q-25 -37 -78 -37q-27 0 -51.5 11t-67.5 42q-49 -60 -108 -60q-36 0 -59.5 20.5t-23.5 52.5q0 35 28 58.5t69 23.5q34 0 68 -21l1 7l3 19q1 6 1 20q0 24 -5 43.5
t-25 71.5h-99v62h75q-37 104 -37 159q0 66 42.5 109t107.5 43q35 0 66 -14.5t46 -38.5q25 -40 25 -106v-41h-81v29q0 51 -13 73.5t-42 22.5t-45.5 -20.5t-16.5 -56.5q0 -55 43 -159zM117 84q-1 1 -3 2q-22 15 -50 15q-40 0 -40 -32q0 -13 8 -21t20 -8q37 0 65 44z" />
    <glyph glyph-name="currency" unicode="&#xa4;" 
d="M302 252l45 -45l-47 -47l-43 43q-34 -23 -73 -23q-37 0 -74 22l-42 -42l-48 49l44 44q-17 35 -17 70t18 72l-44 43l47 47l41 -41q39 23 75 23q37 0 72 -22l42 42l49 -48l-45 -44q18 -35 18 -72q0 -36 -18 -71zM184 397q-29 0 -49.5 -21.5t-20.5 -52.5q0 -30 20.5 -51.5
t49.5 -21.5q28 0 48.5 21.5t20.5 51.5q0 31 -20 52.5t-49 21.5z" />
    <glyph glyph-name="yen" unicode="&#xa5;" 
d="M139 0v218h-79v79h69l-23 78h-79v79h56l-56 193h93l38 -142q12 -43 23 -116q8 55 26 116l42 142h90l-60 -193h60v-79h-84l-24 -78h75v-79h-86v-218h-81z" />
    <glyph glyph-name="brokenbar" unicode="&#xa6;" horiz-adv-x="500" 
d="M212 667h77v-334h-77v334zM212 153h77v-320h-77v320z" />
    <glyph glyph-name="section" unicode="&#xa7;" 
d="M302 521h-73q1 10 1 23q0 82 -44 82q-18 0 -30.5 -14.5t-12.5 -35.5q0 -19 22 -50l111 -155q25 -36 32 -53.5t7 -43.5q0 -74 -56 -107l10 -12q24 -34 24 -69q0 -54 -34.5 -88.5t-87.5 -34.5t-83 33t-30 92q0 13 1 23h75q-2 -11 -2 -21q0 -35 13.5 -56t35.5 -21
q17 0 28.5 15t11.5 39q0 29 -22 58l-87 117q-40 52 -50 71.5t-10 46.5q0 68 66 103l-9 11q-39 50 -39 95q0 47 32.5 77.5t83.5 30.5q54 0 86 -34.5t32 -91.5q0 -16 -2 -30zM221 327l-63 88q-33 -23 -33 -52q0 -23 16 -45l73 -100q29 20 29 54q0 23 -22 55z" />
    <glyph glyph-name="dieresis" unicode="&#xa8;" horiz-adv-x="500" 
d="M160 685h63v-90h-63v90zM276 685h63v-90h-63v90z" />
    <glyph glyph-name="copyright" unicode="&#xa9;" horiz-adv-x="646" 
d="M412 306v-50q0 -41 -3.5 -57.5t-14.5 -31.5q-24 -33 -70 -33t-70 33q-11 15 -14.5 31.5t-3.5 57.5v155q0 40 3.5 56.5t14.5 31.5q24 33 70 33t70 -33q11 -15 14.5 -32t3.5 -56v-28h-60v54q0 25 -6 35t-22 10t-22 -10t-6 -35v-208q0 -25 6 -35t22 -10t22 10t6 35v77h60z
M323 677q121 0 205.5 -100.5t84.5 -243.5q0 -142 -85 -242.5t-205 -100.5q-122 0 -206 101t-84 247q0 139 85.5 239t204.5 100zM323 627q-98 0 -169 -85.5t-71 -204.5q0 -124 69.5 -210.5t170.5 -86.5q99 0 169.5 86t70.5 207t-70.5 207.5t-169.5 86.5z" />
    <glyph glyph-name="ordfeminine" unicode="&#xaa;" horiz-adv-x="244" 
d="M192 400h-49l-4 18q-13 -22 -39 -22q-23 0 -32 13.5t-9 46.5v33q0 24 6 35.5t25 22.5l31 20q13 9 15 12t2 13v29q0 18 -15 18q-11 0 -15 -5.5t-4 -20.5v-31h-45v35q0 61 62 61t62 -65v-167q0 -24 9 -46zM139 537l-23 -17q-9 -6 -11 -11.5t-2 -22.5v-26q0 -26 15 -26
q9 0 15 10t6 26v67zM226 330v-33h-208v33h208z" />
    <glyph glyph-name="guillemotleft" unicode="&#xab;" horiz-adv-x="372" 
d="M254 256l74 -66v-93l-125 109v100l125 111v-94zM81 256l75 -66v-93l-126 109v100l126 110v-93z" />
    <glyph glyph-name="logicalnot" unicode="&#xac;" horiz-adv-x="500" 
d="M389 0v195h-356v72h433v-267h-77z" />
    <glyph glyph-name="registered" unicode="&#xae;" horiz-adv-x="646" 
d="M243 527h91q44 0 58 -17.5t14 -73.5v-27q0 -36 -6 -51t-24 -22q30 -12 30 -79v-47q0 -39 12 -70h-63q-9 30 -9 77v34q0 64 -23 64h-20v-175h-60v387zM303 473v-109h28q9 0 11.5 6t3.5 31v35q-1 25 -3.5 31t-11.5 6h-28zM323 677q121 0 205.5 -100.5t84.5 -243.5
q0 -142 -85 -242.5t-205 -100.5q-122 0 -206 101t-84 247q0 139 85.5 239t204.5 100zM323 627q-98 0 -169 -85.5t-71 -204.5q0 -124 69.5 -210.5t170.5 -86.5q99 0 169.5 86t70.5 207t-70.5 207.5t-169.5 86.5z" />
    <glyph glyph-name="macron" unicode="&#xaf;" horiz-adv-x="500" 
d="M362 664v-49h-223v49h223z" />
    <glyph glyph-name="macron" unicode="&#x2c9;" horiz-adv-x="500" 
d="M362 664v-49h-223v49h223z" />
    <glyph glyph-name="degree" unicode="&#xb0;" 
d="M183 674q58 0 97.5 -42t39.5 -104q0 -58 -40.5 -100t-96.5 -42q-57 0 -97 42t-40 101q0 60 40 102.5t97 42.5zM182 617q-32 0 -56 -26t-24 -61q0 -37 24 -63t56 -26t56.5 26t24.5 60q0 37 -23.5 63.5t-57.5 26.5z" />
    <glyph glyph-name="plusminus" unicode="&#xb1;" 
d="M33 357h117v116h68v-116h115v-67h-115v-117h-68v117h-117v67zM33 117h300v-67h-300v67z" />
    <glyph glyph-name="twosuperior" unicode="&#xb2;" horiz-adv-x="253" 
d="M209 319v-52h-174v10q0 43 13 74.5t53 84.5l20 27q19 25 23.5 38t4.5 36v35q0 24 -6 33t-21 9q-16 0 -22.5 -9t-6.5 -32v-53h-58v52q0 48 16 65q22 24 73 24q45 0 65 -21t20 -68v-35q0 -30 -8 -50.5t-34 -54.5l-24 -34q-40 -48 -44 -79h110z" />
    <glyph glyph-name="threesuperior" unicode="&#xb3;" horiz-adv-x="253" 
d="M94 563h-58v26q0 74 85 74q80 0 80 -70v-39q0 -29 -6.5 -42t-24.5 -20q24 -11 31 -25.5t7 -50.5v-63q0 -52 -19 -70q-22 -20 -67 -20q-86 0 -86 76v53h58v-47q0 -19 6 -27t21 -8q16 0 22.5 8t6.5 27v74q0 21 -11 30t-36 9h-27v53h21q46 0 46 35v42q0 18 -5 24t-19 6
t-19.5 -7.5t-5.5 -27.5v-20z" />
    <glyph glyph-name="acute" unicode="&#xb4;" horiz-adv-x="500" 
d="M274 698h88l-98 -116h-46z" />
    <glyph glyph-name="mu" unicode="&#xb5;" horiz-adv-x="304" 
d="M266 0h-77v15q-18 -22 -37 -22q-17 0 -36 22v-175h-77v673h77v-386q0 -38 7.5 -52t29.5 -14q21 0 28.5 14t7.5 52v386h77v-513z" />
    <glyph glyph-name="mu" unicode="&#x3bc;" horiz-adv-x="304" 
d="M266 0h-77v15q-18 -22 -37 -22q-17 0 -36 22v-175h-77v673h77v-386q0 -38 7.5 -52t29.5 -14q21 0 28.5 14t7.5 52v386h77v-513z" />
    <glyph glyph-name="paragraph" unicode="&#xb6;" 
d="M163 -160v480q-63 2 -106 52t-43 120q0 77 47.5 126t121.5 49h199v-43h-46v-784h-55v784h-63v-784h-55z" />
    <glyph glyph-name="periodcentered" unicode="&#xb7;" horiz-adv-x="170" 
d="M124 307v-120h-77v120h77z" />
    <glyph glyph-name="periodcentered" unicode="&#x2219;" horiz-adv-x="170" 
d="M124 307v-120h-77v120h77z" />
    <glyph glyph-name="cedilla" unicode="&#xb8;" horiz-adv-x="500" 
d="M277 0v-33q65 -21 65 -69q0 -28 -21 -44.5t-58 -16.5q-46 0 -85 29l18 22q33 -16 51 -16q15 0 24 8t9 21q0 15 -10.5 22.5t-39.5 14.5v62h47z" />
    <glyph glyph-name="onesuperior" unicode="&#xb9;" horiz-adv-x="253" 
d="M162 655v-388h-58v286h-46v46q24 0 41.5 15.5t21.5 40.5h41z" />
    <glyph glyph-name="ordmasculine" unicode="&#xba;" horiz-adv-x="244" 
d="M184 607v-136q0 -42 -13 -56q-16 -18 -49 -18t-49 18q-13 16 -13 56v141q0 66 64 66q32 0 46 -16.5t14 -54.5zM105 607v-140q0 -18 3.5 -24.5t13.5 -6.5t13.5 6.5t3.5 24.5v140q0 19 -3.5 25.5t-13.5 6.5t-13.5 -6.5t-3.5 -25.5zM226 330v-33h-208v33h208z" />
    <glyph glyph-name="guillemotright" unicode="&#xbb;" horiz-adv-x="372" 
d="M117 257l-74 67v93l126 -110v-99l-126 -111v93zM290 257l-74 67v93l125 -110v-99l-125 -111v93z" />
    <glyph glyph-name="onequarter" unicode="&#xbc;" horiz-adv-x="599" 
d="M162 655v-388h-58v286h-46v46q24 0 41.5 15.5t21.5 40.5h41zM442 657l-239 -657h-46l239 657h46zM573 81h-29v-81h-58v81h-115v45l91 262h82v-259h29v-48zM484 129v180l-60 -180h60z" />
    <glyph glyph-name="onehalf" unicode="&#xbd;" horiz-adv-x="599" 
d="M162 655v-388h-58v286h-46v46q24 0 41.5 15.5t21.5 40.5h41zM442 657l-239 -657h-46l239 657h46zM555 52v-52h-174v10q0 43 13 74.5t53 84.5l20 27q19 25 23.5 38t4.5 36v35q0 24 -6 33t-21 9q-16 0 -22.5 -9t-6.5 -32v-53h-58v52q0 48 16 65q22 24 73 24q45 0 65 -21
t20 -68v-35q0 -30 -8 -50.5t-34 -54.5l-24 -34q-40 -48 -44 -79h110z" />
    <glyph glyph-name="threequarters" unicode="&#xbe;" horiz-adv-x="599" 
d="M94 563h-58v26q0 74 86 74q80 0 80 -70v-39q0 -29 -6.5 -42t-24.5 -20q24 -11 30.5 -24.5t6.5 -51.5v-63q0 -53 -18 -70q-22 -20 -68 -20q-86 0 -86 76v53h58v-47q0 -20 6 -27.5t22 -7.5t22 7.5t6 27.5v74q0 22 -10 30.5t-36 8.5h-28v53h21q47 0 47 35v42q0 18 -5 24
t-19 6q-15 0 -20.5 -7.5t-5.5 -27.5v-20zM442 657l-239 -657h-47l239 657h47zM573 81h-30v-81h-58v81h-115v45l91 262h82v-259h30v-48zM483 129v180l-60 -180h60z" />
    <glyph glyph-name="questiondown" unicode="&#xbf;" horiz-adv-x="311" 
d="M142 303h68q0 -50 -6 -78t-27 -71l-28 -60q-30 -64 -30 -118q0 -65 45 -65q25 0 35.5 19.5t10.5 63.5v37h72v-46q0 -71 -24 -103q-32 -42 -95 -42q-57 0 -91.5 38t-34.5 100q0 67 45 153l24 45q22 41 27 60t9 67zM137 386v127h72v-127h-72z" />
    <glyph glyph-name="Agrave" unicode="&#xc0;" horiz-adv-x="332" 
d="M211 125h-97l-16 -125h-85l92 667h106l107 -667h-87zM200 208l-27 222q-2 23 -8 67q-3 25 -5 55q-2 -32 -5 -53q-2 -23 -8 -69l-23 -222h76zM135 858l56 -116h-46l-98 116h88z" />
    <glyph glyph-name="Aacute" unicode="&#xc1;" horiz-adv-x="332" 
d="M211 125h-97l-16 -125h-85l92 667h106l107 -667h-87zM200 208l-27 222q-2 23 -8 67q-3 25 -5 55q-2 -32 -5 -53q-2 -23 -8 -69l-23 -222h76zM196 858h88l-98 -116h-46z" />
    <glyph glyph-name="Acircumflex" unicode="&#xc2;" horiz-adv-x="332" 
d="M211 125h-97l-16 -125h-85l92 667h106l107 -667h-87zM200 208l-27 222q-2 23 -8 67q-3 25 -5 55q-2 -32 -5 -53q-2 -23 -8 -69l-23 -222h76zM278 744h-53l-58 63l-61 -63h-52l86 112h52z" />
    <glyph glyph-name="Atilde" unicode="&#xc3;" horiz-adv-x="332" 
d="M211 125h-97l-16 -125h-85l92 667h106l107 -667h-87zM200 208l-27 222q-2 23 -8 67q-3 25 -5 55q-2 -32 -5 -53q-2 -23 -8 -69l-23 -222h76zM257 845h25q-28 -83 -77 -83q-15 0 -33 9l-25 11q-20 9 -33 9q-29 0 -41 -36h-23q7 41 28.5 65t50.5 24q19 0 42 -9l25 -11
q16 -7 25 -7q19 0 32 22z" />
    <glyph glyph-name="Adieresis" unicode="&#xc4;" horiz-adv-x="332" 
d="M211 125h-97l-16 -125h-85l92 667h106l107 -667h-87zM200 208l-27 222q-2 23 -8 67q-3 25 -5 55q-2 -32 -5 -53q-2 -23 -8 -69l-23 -222h76zM135 848v-95h-70v95h70zM260 848v-95h-70v95h70z" />
    <glyph glyph-name="Aring" unicode="&#xc5;" horiz-adv-x="332" 
d="M211 125h-97l-16 -125h-85l92 667h106l107 -667h-87zM200 208l-27 222q-2 23 -8 67q-3 25 -5 55q-2 -32 -5 -53q-2 -23 -8 -69l-23 -222h76zM162 880q34 0 57 -23.5t23 -57.5q0 -33 -23.5 -56t-56.5 -23q-34 0 -57 23t-23 57t23 57t57 23zM162 848q-20 0 -34 -14t-14 -34
t14 -34t34 -14t34 14t14 33q0 21 -14 35t-34 14z" />
    <glyph glyph-name="AE" unicode="&#xc6;" horiz-adv-x="483" 
d="M225 306h-67l-57 -306h-88l137 667h295v-83h-130v-203h113v-75h-113v-223h142v-83h-232v306zM173 381h52v203h-14z" />
    <glyph glyph-name="Ccedilla" unicode="&#xc7;" horiz-adv-x="360" 
d="M211 -7v-26q64 -22 64 -69q0 -61 -85 -61q-49 0 -89 29l19 22q32 -16 51 -16q14 0 23 8t9 21q0 15 -10 22.5t-39 14.5v54q-43 9 -70 34q-31 28 -41 75q-5 25 -5 97v271q0 70 5.5 98.5t23.5 54.5q39 55 114 55q74 0 114 -55q18 -26 24 -55.5t6 -97.5v-42h-91v89
q0 47 -11.5 65.5t-40.5 18.5q-30 0 -42 -19t-12 -65v-365q0 -46 12 -65t42 -19q29 0 40.5 19t11.5 65v129h91v-82q0 -94 -14 -127q-29 -64 -100 -78z" />
    <glyph glyph-name="Egrave" unicode="&#xc8;" horiz-adv-x="291" 
d="M252 306h-116v-223h130v-83h-220v667h220v-83h-130v-195h116v-83zM122 858l56 -116h-46l-98 116h88z" />
    <glyph glyph-name="Eacute" unicode="&#xc9;" horiz-adv-x="291" 
d="M251 306h-116v-223h130v-83h-220v667h220v-83h-130v-195h116v-83zM176 858h88l-98 -116h-46z" />
    <glyph glyph-name="Ecircumflex" unicode="&#xca;" horiz-adv-x="291" 
d="M252 306h-117v-223h130v-83h-220v667h220v-83h-130v-195h117v-83zM264 744h-53l-58 63l-61 -63h-52l86 112h52z" />
    <glyph glyph-name="Edieresis" unicode="&#xcb;" horiz-adv-x="291" 
d="M251 306h-116v-223h130v-83h-220v667h220v-83h-130v-195h116v-83zM117 848v-95h-70v95h70zM242 848v-95h-70v95h70z" />
    <glyph glyph-name="Igrave" unicode="&#xcc;" horiz-adv-x="181" 
d="M135 667v-667h-90v667h90zM60 858l56 -116h-46l-98 116h88z" />
    <glyph glyph-name="Iacute" unicode="&#xcd;" horiz-adv-x="181" 
d="M135 667v-667h-90v667h90zM121 858h88l-98 -116h-46z" />
    <glyph glyph-name="Icircumflex" unicode="&#xce;" horiz-adv-x="181" 
d="M135 667v-667h-90v667h90zM187 744h-53l-43 63l-46 -63h-52l71 112h52z" />
    <glyph glyph-name="Idieresis" unicode="&#xcf;" horiz-adv-x="181" 
d="M136 667v-667h-90v667h90zM73 848v-95h-70v95h70zM178 848v-95h-70v95h70z" />
    <glyph glyph-name="Eth" unicode="&#xd0;" horiz-adv-x="350" 
d="M46 0v307h-47v83h47v277h155q65 0 88 -23.5t23 -90.5v-439q0 -66 -23.5 -90t-87.5 -24h-155zM136 390h46v-83h-46v-224h41q27 0 36 11.5t9 46.5v385q0 35 -9 46.5t-36 11.5h-41v-194z" />
    <glyph glyph-name="Ntilde" unicode="&#xd1;" horiz-adv-x="369" 
d="M324 0h-99l-114 516q2 -33 3 -43l4 -62q2 -22 2 -42l9 -369h-84v667h93l97 -406q6 -30 8 -38q3 -10 7 -37q2 -7 5 -23q-2 28 -2 38q-2 27 -6 83q-2 38 -2 51l-8 332h87v-667zM275 845h25q-28 -83 -77 -83q-15 0 -33 9l-25 11q-20 9 -33 9q-29 0 -41 -36h-23q7 41 28.5 65
t50.5 24q19 0 42 -9l25 -11q16 -7 25 -7q19 0 32 22z" />
    <glyph glyph-name="Ograve" unicode="&#xd2;" horiz-adv-x="363" 
d="M325 469v-271q0 -71 -5.5 -99t-24.5 -54q-38 -55 -114 -55q-75 0 -114 55q-18 26 -23.5 54.5t-5.5 98.5v271q0 70 5.5 98.5t23.5 54.5q39 55 114 55q76 0 114 -55q19 -26 24.5 -54t5.5 -99zM128 516v-365q0 -46 12 -65t41 -19q30 0 42 18.5t12 65.5v365q0 47 -12 65.5
t-42 18.5q-29 0 -41 -19t-12 -65zM151 858l56 -116h-46l-98 116h88z" />
    <glyph glyph-name="Oacute" unicode="&#xd3;" horiz-adv-x="363" 
d="M325 469v-271q0 -71 -5.5 -99t-24.5 -54q-38 -55 -114 -55q-75 0 -114 55q-18 26 -23.5 54.5t-5.5 98.5v271q0 70 5.5 98.5t23.5 54.5q39 55 114 55q76 0 114 -55q19 -26 24.5 -54t5.5 -99zM128 516v-365q0 -46 12 -65t41 -19q30 0 42 18.5t12 65.5v365q0 47 -12 65.5
t-42 18.5q-29 0 -41 -19t-12 -65zM212 858h88l-98 -116h-46z" />
    <glyph glyph-name="Ocircumflex" unicode="&#xd4;" horiz-adv-x="363" 
d="M325 469v-271q0 -71 -5.5 -99t-24.5 -54q-38 -55 -114 -55q-75 0 -114 55q-18 26 -23.5 54.5t-5.5 98.5v271q0 70 5.5 98.5t23.5 54.5q39 55 114 55q76 0 114 -55q19 -26 24.5 -54t5.5 -99zM128 516v-365q0 -46 12 -65t41 -19q30 0 42 18.5t12 65.5v365q0 47 -12 65.5
t-42 18.5q-29 0 -41 -19t-12 -65zM293 744h-53l-58 63l-61 -63h-52l86 112h52z" />
    <glyph glyph-name="Otilde" unicode="&#xd5;" horiz-adv-x="363" 
d="M325 469v-271q0 -71 -5.5 -99t-24.5 -54q-38 -55 -114 -55q-75 0 -114 55q-18 26 -23.5 54.5t-5.5 98.5v271q0 70 5.5 98.5t23.5 54.5q39 55 114 55q76 0 114 -55q19 -26 24.5 -54t5.5 -99zM128 516v-365q0 -46 12 -65t41 -19q30 0 42 18.5t12 65.5v365q0 47 -12 65.5
t-42 18.5q-29 0 -41 -19t-12 -65zM272 845h25q-28 -83 -77 -83q-15 0 -33 9l-25 11q-20 9 -33 9q-29 0 -41 -36h-23q7 41 28.5 65t50.5 24q20 0 42 -9l25 -11q16 -7 25 -7q19 0 32 22z" />
    <glyph glyph-name="Odieresis" unicode="&#xd6;" horiz-adv-x="363" 
d="M325 469v-271q0 -70 -5.5 -98.5t-24.5 -54.5q-38 -55 -114 -55q-75 0 -114 55q-18 26 -23.5 54.5t-5.5 98.5v271q0 70 5.5 98.5t23.5 54.5q39 55 114 55q76 0 114 -55q19 -26 24.5 -54.5t5.5 -98.5zM128 516v-365q0 -46 12 -65t41 -19q30 0 42 18.5t12 65.5v365
q0 47 -12 65.5t-42 18.5q-29 0 -41 -19t-12 -65zM154 848v-95h-70v95h70zM279 848v-95h-70v95h70z" />
    <glyph glyph-name="multiply" unicode="&#xd7;" 
d="M328 226l-47 -47l-98 97l-96 -97l-48 49l96 96l-95 95l47 47l95 -95l97 97l49 -48l-97 -97z" />
    <glyph glyph-name="Oslash" unicode="&#xd8;" horiz-adv-x="362" 
d="M59 58l-34 -73l-35 15l52 108q-4 24 -4 90v271q0 71 5.5 99t24.5 54q39 55 113 55q70 0 110 -50l29 60l34 -16l-41 -85q11 -28 11 -117v-271q0 -71 -5.5 -99t-24.5 -54q-38 -55 -113 -55q-82 0 -122 68zM128 289l106 219v21q0 71 -53 71q-29 0 -41 -19t-12 -65v-227z
M234 421l-106 -219v-51q0 -46 12 -65t41 -19t41 19t12 65v270z" />
    <glyph glyph-name="Ugrave" unicode="&#xd9;" horiz-adv-x="371" 
d="M329 667v-469q0 -71 -5.5 -99t-24.5 -54q-38 -55 -114 -55q-75 0 -114 55q-18 26 -23.5 54.5t-5.5 98.5v469h90v-516q0 -46 12 -65t41 -19q30 0 42 18.5t12 65.5v516h90zM155 858l56 -116h-46l-98 116h88z" />
    <glyph glyph-name="Uacute" unicode="&#xda;" horiz-adv-x="371" 
d="M329 667v-469q0 -71 -5.5 -99t-24.5 -54q-38 -55 -114 -55q-75 0 -114 55q-18 26 -23.5 54.5t-5.5 98.5v469h90v-516q0 -46 12 -65t41 -19q30 0 42 18.5t12 65.5v516h90zM216 858h88l-98 -116h-46z" />
    <glyph glyph-name="Ucircumflex" unicode="&#xdb;" horiz-adv-x="371" 
d="M329 667v-469q0 -71 -5.5 -99t-24.5 -54q-38 -55 -114 -55q-75 0 -114 55q-18 26 -23.5 54.5t-5.5 98.5v469h90v-516q0 -46 12 -65t41 -19q30 0 42 18.5t12 65.5v516h90zM297 744h-53l-58 63l-61 -63h-52l86 112h52z" />
    <glyph glyph-name="Udieresis" unicode="&#xdc;" horiz-adv-x="371" 
d="M329 667v-469q0 -71 -5.5 -99t-24.5 -54q-38 -55 -114 -55q-75 0 -114 55q-18 26 -23.5 54.5t-5.5 98.5v469h90v-516q0 -46 12 -65t41 -19q30 0 42 18.5t12 65.5v516h90zM158 848v-95h-70v95h70zM283 848v-95h-70v95h70z" />
    <glyph glyph-name="Yacute" unicode="&#xdd;" horiz-adv-x="300" 
d="M192 273v-273h-90v273l-105 394h91l37 -152q15 -62 24 -116q8 52 25 116l42 152h88zM181 858h88l-98 -116h-46z" />
    <glyph glyph-name="Thorn" unicode="&#xde;" horiz-adv-x="333" 
d="M135 199v-199h-90v667h90v-100h72q65 0 86 -25q10 -13 13.5 -31.5t3.5 -62.5v-130q0 -47 -4 -66t-17 -32q-20 -21 -82 -21h-72zM135 484v-202h53q20 0 26 7.5t6 32.5v122q0 25 -6 32.5t-26 7.5h-53z" />
    <glyph glyph-name="germandbls" unicode="&#xdf;" horiz-adv-x="304" 
d="M116 0h-77v562q0 55 29 83.5t84 28.5q112 0 112 -101v-47q0 -46 -36 -63q27 -12 34.5 -25.5t7.5 -48.5v-280q0 -66 -19 -86q-27 -30 -76 -30q-20 0 -35 7v63h9q24 0 34 12t10 41v255q0 35 -11 48t-42 13v58q4 -1 9 -1q38 0 38 48v25q0 47 -38 47q-18 0 -25.5 -10.5
t-7.5 -36.5v-562z" />
    <glyph glyph-name="agrave" unicode="&#xe0;" horiz-adv-x="297" 
d="M273 0h-82q-7 27 -11 41q-30 -48 -75 -48q-46 0 -63 33q-11 23 -11 76v63q0 44 11 65t45 43l60 38q24 14 29 22t5 29v55q0 39 -33 39q-22 0 -33 -14q-7 -8 -7 -40v-54h-77v62q0 52 24 77q31 33 89 33q60 0 91 -34q23 -24 23 -84v-320q0 -44 15 -82zM181 252l-48 -35
q-16 -12 -20.5 -24t-4.5 -41v-45q0 -49 31 -49q17 0 29.5 19.5t12.5 47.5v127zM122 698l56 -116h-46l-98 116h88z" />
    <glyph glyph-name="aacute" unicode="&#xe1;" horiz-adv-x="297" 
d="M273 0h-82q-7 27 -11 41q-30 -48 -75 -48q-46 0 -63 33q-11 23 -11 76v63q0 44 11 65t45 43l60 38q24 14 29 22t5 29v55q0 39 -33 39q-22 0 -33 -14q-7 -8 -7 -40v-54h-77v62q0 52 24 77q31 33 89 33q60 0 91 -34q23 -24 23 -84v-320q0 -44 15 -82zM181 252l-48 -35
q-16 -12 -20.5 -24t-4.5 -41v-45q0 -49 31 -49q17 0 29.5 19.5t12.5 47.5v127zM166 698h88l-98 -116h-46z" />
    <glyph glyph-name="acircumflex" unicode="&#xe2;" horiz-adv-x="297" 
d="M273 0h-82q-7 27 -11 41q-30 -48 -75 -48q-46 0 -63 33q-11 23 -11 76v63q0 44 11 65t45 43l60 38q24 14 29 22t5 29v55q0 39 -33 39q-22 0 -33 -14q-7 -8 -7 -40v-54h-77v62q0 52 24 77q31 33 89 33q60 0 91 -34q23 -24 23 -84v-320q0 -44 15 -82zM181 252l-48 -35
q-16 -12 -20.5 -24t-4.5 -41v-45q0 -49 31 -49q17 0 29.5 19.5t12.5 47.5v127zM261 584h-53l-58 63l-61 -63h-52l86 112h52z" />
    <glyph glyph-name="atilde" unicode="&#xe3;" horiz-adv-x="297" 
d="M273 0h-82q-7 27 -11 41q-30 -48 -75 -48q-46 0 -63 33q-11 23 -11 76v63q0 44 11 65t45 43l60 38q24 14 29 22t5 29v55q0 39 -33 39q-22 0 -33 -14q-7 -8 -7 -40v-54h-77v62q0 52 24 77q31 33 89 33q60 0 91 -34q23 -24 23 -84v-320q0 -44 15 -82zM181 252l-48 -35
q-16 -12 -20.5 -24t-4.5 -41v-45q0 -49 31 -49q17 0 29.5 19.5t12.5 47.5v127zM240 685h25q-29 -83 -77 -83q-15 0 -33 9l-25 11q-20 9 -33 9q-29 0 -41 -36h-23q7 41 28.5 65t50.5 24q20 0 42 -9l25 -11q14 -6 25 -6q18 0 32 21z" />
    <glyph glyph-name="adieresis" unicode="&#xe4;" horiz-adv-x="297" 
d="M273 0h-82q-7 27 -11 41q-30 -48 -75 -48q-46 0 -63 33q-11 23 -11 76v63q0 44 11 65t45 43l60 38q24 14 29 22t5 29v55q0 39 -33 39q-22 0 -33 -14q-7 -8 -7 -40v-54h-77v62q0 52 24 77q31 33 89 33q60 0 91 -34q23 -24 23 -84v-320q0 -44 15 -82zM181 252l-48 -35
q-16 -12 -20.5 -24t-4.5 -41v-45q0 -49 31 -49q17 0 29.5 19.5t12.5 47.5v127zM63 685h63v-90h-63v90zM179 685h63v-90h-63v90z" />
    <glyph glyph-name="aring" unicode="&#xe5;" horiz-adv-x="297" 
d="M273 0h-82q-7 27 -11 41q-30 -48 -75 -48q-46 0 -63 33q-11 23 -11 76v63q0 44 11 65t45 43l60 38q24 14 29 22t5 29v55q0 39 -33 39q-22 0 -33 -14q-7 -8 -7 -40v-54h-77v62q0 52 24 77q31 33 89 33q60 0 91 -34q23 -24 23 -84v-320q0 -44 15 -82zM181 252l-48 -35
q-16 -12 -20.5 -24t-4.5 -41v-45q0 -49 31 -49q17 0 29.5 19.5t12.5 47.5v127zM143 720q34 0 57 -23t23 -57q0 -33 -23.5 -56.5t-56.5 -23.5t-56.5 24t-23.5 57q0 32 24 55.5t56 23.5zM143 688q-19 0 -33.5 -14t-14.5 -33q0 -20 14 -34.5t34 -14.5q19 0 33.5 14t14.5 34
t-14 34t-34 14z" />
    <glyph glyph-name="ae" unicode="&#xe6;" horiz-adv-x="441" 
d="M331 190h77v-74q0 -123 -108 -123q-78 0 -105 54q-27 -33 -44.5 -43.5t-46.5 -10.5q-41 0 -59 24q-14 17 -14 68v86q0 40 10 60t39 40l68 45q1 0 3 1.5t5.5 3.5t6.5 3q11 6 14.5 12t3.5 21v55q0 23 -9 33t-30 10q-19 0 -26.5 -9.5t-7.5 -33.5v-67h-77v61q0 53 25 81
q32 33 92 33q37 0 78 -23q33 23 76 23q52 0 82 -33q24 -25 24 -75v-175h-150v-114q0 -38 7.5 -51.5t29.5 -13.5q21 0 28.5 13.5t7.5 51.5v67zM258 304h73v86q0 38 -7.5 51.5t-29.5 13.5q-21 0 -28.5 -13.5t-7.5 -51.5v-86zM181 253l-49 -35q-15 -10 -19.5 -19.5t-4.5 -32.5
v-55q0 -32 4 -38q9 -12 26 -12q43 0 43 64v128z" />
    <glyph glyph-name="ccedilla" unicode="&#xe7;" horiz-adv-x="289" 
d="M170 -5v-28q65 -21 65 -69q0 -28 -21 -44.5t-58 -16.5q-44 0 -85 29l19 22q31 -16 50 -16q14 0 23 8t9 21q0 15 -10 22.5t-39 14.5v57q-34 7 -51 19q-23 15 -30.5 38t-7.5 78v253q0 48 4.5 68t18.5 36q30 33 90 33q61 0 91 -33q14 -16 18.5 -37t4.5 -67v-55h-77v62
q0 38 -8 52t-29 14t-28.5 -13.5t-7.5 -52.5v-267q0 -38 7.5 -51.5t28.5 -13.5q22 0 29.5 13.5t7.5 51.5v81h77v-74q0 -58 -9 -82t-37 -39q-16 -10 -45 -14z" />
    <glyph glyph-name="egrave" unicode="&#xe8;" horiz-adv-x="295" 
d="M184 191h77v-60q0 -48 -4.5 -68.5t-18.5 -36.5q-30 -33 -90 -33q-61 0 -91 33q-14 16 -18.5 36.5t-4.5 68.5v252q0 48 4.5 68t18.5 36q30 33 91 33q60 0 90 -33q14 -16 18.5 -36.5t4.5 -67.5v-144h-150v-118q0 -37 7.5 -50t29.5 -13q21 0 28.5 13t7.5 50v70zM111 302h73
v88q0 38 -7.5 51.5t-28.5 13.5q-22 0 -29.5 -13.5t-7.5 -51.5v-88zM124 698l56 -116h-46l-98 116h88z" />
    <glyph glyph-name="eacute" unicode="&#xe9;" horiz-adv-x="295" 
d="M184 191h77v-60q0 -48 -4.5 -68.5t-18.5 -36.5q-30 -33 -90 -33q-61 0 -91 33q-14 16 -18.5 36.5t-4.5 68.5v252q0 48 4.5 68t18.5 36q30 33 91 33q60 0 90 -33q14 -16 18.5 -36.5t4.5 -67.5v-144h-150v-118q0 -37 7.5 -50t29.5 -13q21 0 28.5 13t7.5 50v70zM111 302h73
v88q0 38 -7.5 51.5t-28.5 13.5q-22 0 -29.5 -13.5t-7.5 -51.5v-88zM172 698h88l-98 -116h-46z" />
    <glyph glyph-name="ecircumflex" unicode="&#xea;" horiz-adv-x="295" 
d="M184 191h77v-60q0 -48 -4.5 -68.5t-18.5 -36.5q-30 -33 -90 -33q-61 0 -91 33q-14 16 -18.5 36.5t-4.5 68.5v252q0 48 4.5 68t18.5 36q30 33 91 33q60 0 90 -33q14 -16 18.5 -36.5t4.5 -67.5v-144h-150v-118q0 -37 7.5 -50t29.5 -13q21 0 28.5 13t7.5 50v70zM111 302h73
v88q0 38 -7.5 51.5t-28.5 13.5q-22 0 -29.5 -13.5t-7.5 -51.5v-88zM259 584h-53l-58 63l-61 -63h-52l86 112h52z" />
    <glyph glyph-name="edieresis" unicode="&#xeb;" horiz-adv-x="295" 
d="M184 191h77v-60q0 -48 -4.5 -68.5t-18.5 -36.5q-30 -33 -90 -33q-61 0 -91 33q-14 16 -18.5 36.5t-4.5 68.5v252q0 48 4.5 68t18.5 36q30 33 91 33q60 0 90 -33q14 -16 18.5 -36.5t4.5 -67.5v-144h-150v-118q0 -37 7.5 -50t29.5 -13q21 0 28.5 13t7.5 50v70zM111 302h73
v88q0 38 -7.5 51.5t-28.5 13.5q-22 0 -29.5 -13.5t-7.5 -51.5v-88zM58 685h63v-90h-63v90zM174 685h63v-90h-63v90z" />
    <glyph glyph-name="igrave" unicode="&#xec;" horiz-adv-x="154" 
d="M115 513v-513h-77v513h77zM53 698l56 -116h-46l-98 116h88z" />
    <glyph glyph-name="iacute" unicode="&#xed;" horiz-adv-x="154" 
d="M116 513v-513h-77v513h77zM102 698h88l-98 -116h-46z" />
    <glyph glyph-name="icircumflex" unicode="&#xee;" horiz-adv-x="154" 
d="M115 513v-513h-77v513h77zM160 584h-54l-28 63l-31 -63h-54l58 112h52z" />
    <glyph glyph-name="idieresis" unicode="&#xef;" horiz-adv-x="154" 
d="M115 513v-513h-77v513h77zM-3 685h63v-90h-63v90zM93 685h63v-90h-63v90z" />
    <glyph glyph-name="eth" unicode="&#xf0;" horiz-adv-x="295" 
d="M61 557l-16 53l83 28l-16 58l41 11l22 -54l86 22l16 -51l-80 -24l46 -114q13 -31 15.5 -44.5t2.5 -51.5v-259q0 -46 -4.5 -67t-18.5 -37q-31 -34 -89 -34q-61 0 -92 34q-14 15 -18.5 35.5t-4.5 68.5v268q0 121 124 121l-17 63zM112 390v-267q0 -38 7.5 -51.5t28.5 -13.5
q22 0 29.5 13.5t7.5 51.5v267q0 38 -7.5 51.5t-28.5 13.5q-22 0 -29.5 -13.5t-7.5 -51.5z" />
    <glyph glyph-name="ntilde" unicode="&#xf1;" horiz-adv-x="304" 
d="M116 513v-34q33 41 73 41q48 0 66 -41q10 -24 10 -77v-402h-77v387q0 38 -7.5 51.5t-28.5 13.5t-28.5 -13.5t-7.5 -51.5v-387h-77v513h77zM243 685h25q-29 -83 -77 -83q-15 0 -33 9l-25 11q-20 9 -33 9q-29 0 -41 -36h-23q7 41 28.5 65t50.5 24q19 0 42 -9l25 -11
q14 -6 25 -6q18 0 32 21z" />
    <glyph glyph-name="ograve" unicode="&#xf2;" horiz-adv-x="295" 
d="M261 389v-258q0 -48 -4.5 -68.5t-18.5 -36.5q-30 -33 -90 -33q-61 0 -91 33q-14 16 -18.5 37t-4.5 68v267q0 59 30 90.5t86 31.5q62 0 90 -37q13 -17 17 -35t4 -59zM111 390v-267q0 -38 7.5 -51.5t28.5 -13.5q22 0 29.5 13.5t7.5 51.5v267q0 38 -7.5 51.5t-28.5 13.5
q-22 0 -29.5 -13.5t-7.5 -51.5zM124 698l56 -116h-46l-98 116h88z" />
    <glyph glyph-name="oacute" unicode="&#xf3;" horiz-adv-x="295" 
d="M261 389v-258q0 -48 -4.5 -68.5t-18.5 -36.5q-30 -33 -90 -33q-61 0 -91 33q-14 16 -18.5 37t-4.5 68v267q0 59 30 90.5t86 31.5q62 0 90 -37q13 -17 17 -35t4 -59zM111 390v-267q0 -38 7.5 -51.5t28.5 -13.5q22 0 29.5 13.5t7.5 51.5v267q0 38 -7.5 51.5t-28.5 13.5
q-22 0 -29.5 -13.5t-7.5 -51.5zM172 698h88l-98 -116h-46z" />
    <glyph glyph-name="ocircumflex" unicode="&#xf4;" horiz-adv-x="295" 
d="M261 389v-258q0 -48 -4.5 -68.5t-18.5 -36.5q-30 -33 -90 -33q-61 0 -91 33q-14 16 -18.5 37t-4.5 68v267q0 59 30 90.5t86 31.5q62 0 90 -37q13 -17 17 -35t4 -59zM111 390v-267q0 -38 7.5 -51.5t28.5 -13.5q22 0 29.5 13.5t7.5 51.5v267q0 38 -7.5 51.5t-28.5 13.5
q-22 0 -29.5 -13.5t-7.5 -51.5zM259 584h-53l-58 63l-61 -63h-52l86 112h52z" />
    <glyph glyph-name="otilde" unicode="&#xf5;" horiz-adv-x="295" 
d="M260 389v-258q0 -48 -4.5 -68.5t-18.5 -36.5q-30 -33 -90 -33t-90 33q-14 16 -18.5 37t-4.5 68v267q0 59 30 90.5t86 31.5q60 0 89 -37q13 -17 17 -35t4 -59zM111 390v-267q0 -38 7.5 -51.5t28.5 -13.5t28.5 13.5t7.5 51.5v267q0 38 -7.5 51.5t-28.5 13.5t-28.5 -13.5
t-7.5 -51.5zM238 685h25q-29 -83 -77 -83q-15 0 -33 9l-25 11q-20 9 -33 9q-29 0 -41 -36h-23q7 41 28.5 65t50.5 24q20 0 42 -9l25 -11q14 -6 25 -6q18 0 32 21z" />
    <glyph glyph-name="odieresis" unicode="&#xf6;" horiz-adv-x="295" 
d="M261 389v-258q0 -48 -4.5 -68.5t-18.5 -36.5q-30 -33 -90 -33q-61 0 -91 33q-14 16 -18.5 37t-4.5 68v267q0 59 30 90.5t86 31.5q62 0 90 -37q13 -17 17 -35t4 -59zM111 390v-267q0 -38 7.5 -51.5t28.5 -13.5q22 0 29.5 13.5t7.5 51.5v267q0 38 -7.5 51.5t-28.5 13.5
q-22 0 -29.5 -13.5t-7.5 -51.5zM58 685h63v-90h-63v90zM174 685h63v-90h-63v90z" />
    <glyph glyph-name="divide" unicode="&#xf7;" 
d="M33 357h300v-67h-300v67zM218 228v-108h-69v108h69zM218 527v-108h-69v108h69z" />
    <glyph glyph-name="oslash" unicode="&#xf8;" horiz-adv-x="295" 
d="M13 -12l29 64q-8 24 -8 79v267q0 59 29.5 90.5t85.5 31.5t87 -32l22 50l29 -13l-32 -70q6 -22 6 -66v-258q0 -48 -4.5 -68.5t-18.5 -36.5q-30 -33 -89 -33q-55 0 -87 29l-21 -47zM184 372v18q0 38 -7.5 51.5t-28.5 13.5q-22 0 -29.5 -13.5t-7.5 -51.5v-183zM184 296
l-73 -164v-22q0 -52 36 -52q22 0 29.5 13.5t7.5 51.5v173z" />
    <glyph glyph-name="ugrave" unicode="&#xf9;" horiz-adv-x="304" 
d="M189 0v34q-29 -41 -75 -41q-48 0 -66 41q-9 23 -9 77v402h77v-387q0 -38 7.5 -51.5t29.5 -13.5q21 0 28.5 14t7.5 52v386h77v-513h-77zM129 698l56 -116h-46l-98 116h88z" />
    <glyph glyph-name="uacute" unicode="&#xfa;" horiz-adv-x="304" 
d="M189 0v34q-29 -41 -75 -41q-48 0 -66 41q-9 23 -9 77v402h77v-387q0 -38 7.5 -51.5t29.5 -13.5q21 0 28.5 14t7.5 52v386h77v-513h-77zM177 698h88l-98 -116h-46z" />
    <glyph glyph-name="ucircumflex" unicode="&#xfb;" horiz-adv-x="304" 
d="M189 0v34q-29 -41 -75 -41q-48 0 -66 41q-9 23 -9 77v402h77v-387q0 -38 7.5 -51.5t29.5 -13.5q21 0 28.5 14t7.5 52v386h77v-513h-77zM264 584h-53l-58 63l-61 -63h-52l86 112h52z" />
    <glyph glyph-name="udieresis" unicode="&#xfc;" horiz-adv-x="304" 
d="M189 0v34q-29 -41 -75 -41q-48 0 -66 41q-9 23 -9 77v402h77v-387q0 -38 7.5 -51.5t29.5 -13.5q21 0 28.5 14t7.5 52v386h77v-513h-77zM63 685h63v-90h-63v90zM179 685h63v-90h-63v90z" />
    <glyph glyph-name="yacute" unicode="&#xfd;" horiz-adv-x="256" 
d="M252 513l-91 -564q-11 -64 -32 -86.5t-70 -22.5h-28h-8v77q5 -1 14 -1q26 0 35.5 14.5t9.5 55.5q0 32 -4 58l-75 469h77l25 -203q9 -72 24 -202q4 40 4 41q4 58 7 87q5 53 7 72l26 205h79zM152 698h88l-98 -116h-46z" />
    <glyph glyph-name="thorn" unicode="&#xfe;" horiz-adv-x="299" 
d="M39 -160v827h77v-190q25 43 68 43q45 0 68 -33q9 -13 11.5 -27t2.5 -51v-293q0 -41 -2 -55t-10 -29q-20 -39 -68 -39q-36 0 -70 43v-196h-77zM189 127v260q0 38 -7.5 51.5t-28.5 13.5q-22 0 -29.5 -13.5t-7.5 -51.5v-261q0 -38 7.5 -51.5t28.5 -13.5q22 0 29.5 14t7.5 52
z" />
    <glyph glyph-name="ydieresis" unicode="&#xff;" horiz-adv-x="256" 
d="M252 513l-91 -564q-11 -64 -32 -86.5t-70 -22.5h-28h-8v77q5 -1 14 -1q26 0 35.5 14.5t9.5 55.5q0 32 -4 58l-75 469h77l25 -203q9 -72 24 -202q4 40 4 41q4 58 7 87q5 53 7 72l26 205h79zM38 685h63v-90h-63v90zM154 685h63v-90h-63v90z" />
    <glyph glyph-name="Amacron" unicode="&#x100;" horiz-adv-x="332" 
d="M211 125h-97l-16 -125h-85l92 667h106l107 -667h-87zM200 208l-27 222q-2 23 -8 67q-3 25 -5 55q-2 -32 -5 -53q-2 -23 -8 -69l-23 -222h76zM277 824v-49h-223v49h223z" />
    <glyph glyph-name="amacron" unicode="&#x101;" horiz-adv-x="297" 
d="M273 0h-82q-7 27 -11 41q-30 -48 -75 -48q-46 0 -63 33q-11 23 -11 76v63q0 44 11 65t45 43l60 38q24 14 29 22t5 29v55q0 39 -33 39q-22 0 -33 -14q-7 -8 -7 -40v-54h-77v62q0 52 24 77q31 33 89 33q60 0 91 -34q23 -24 23 -84v-320q0 -44 15 -82zM181 252l-48 -35
q-16 -12 -20.5 -24t-4.5 -41v-45q0 -49 31 -49q17 0 29.5 19.5t12.5 47.5v127zM260 664v-49h-223v49h223z" />
    <glyph glyph-name="Abreve" unicode="&#x102;" horiz-adv-x="332" 
d="M211 125h-97l-16 -125h-85l92 667h106l107 -667h-87zM200 208l-27 222q-2 23 -8 67q-3 25 -5 55q-2 -32 -5 -53q-2 -23 -8 -69l-23 -222h76zM233 842h48q-14 -37 -31 -53q-31 -31 -84 -31q-57 0 -88 34q-16 16 -28 50h48q22 -39 68 -39t67 39z" />
    <glyph glyph-name="abreve" unicode="&#x103;" horiz-adv-x="297" 
d="M273 0h-82q-7 27 -11 41q-30 -48 -75 -48q-46 0 -63 33q-11 23 -11 76v63q0 44 11 65t45 43l60 38q24 14 29 22t5 29v55q0 39 -33 39q-22 0 -33 -14q-7 -8 -7 -40v-54h-77v62q0 52 24 77q31 33 89 33q60 0 91 -34q23 -24 23 -84v-320q0 -44 15 -82zM181 252l-48 -35
q-16 -12 -20.5 -24t-4.5 -41v-45q0 -49 31 -49q17 0 29.5 19.5t12.5 47.5v127zM216 682h48q-14 -37 -31 -53q-31 -31 -84 -31q-57 0 -88 34q-17 19 -28 50h48q22 -39 68 -39q45 0 67 39z" />
    <glyph glyph-name="Aogonek" unicode="&#x104;" horiz-adv-x="332" 
d="M211 667l107 -667q-56 -41 -56 -82q0 -43 75 -45v-36q-18 -1 -29 -1q-51 0 -79.5 19.5t-28.5 53.5q0 46 55 91h-24l-20 125h-96l-17 -125h-85l92 667h106zM200 208l-27 222q-2 23 -8 67q-3 25 -5 55q-2 -32 -5 -53l-7 -69l-24 -222h76z" />
    <glyph glyph-name="aogonek" unicode="&#x105;" horiz-adv-x="297" 
d="M258 402v-320q0 -44 15 -82q-56 -41 -56 -82q0 -45 75 -45v-36q-18 -1 -28 -1q-47 0 -75 19.5t-28 53.5q0 46 55 91h-25q-7 27 -11 41q-30 -48 -75 -48q-46 0 -63 33q-11 23 -11 76v63q0 44 11 65t45 43l60 38q24 14 29 22t5 29v55q0 39 -33 39q-22 0 -33 -14
q-7 -8 -7 -40v-54h-77v62q0 52 24 77q31 33 89 33q60 0 91 -34q23 -24 23 -84zM181 252l-48 -35q-16 -12 -20.5 -24t-4.5 -41v-45q0 -49 31 -49q17 0 29.5 19.5t12.5 47.5v127z" />
    <glyph glyph-name="Cacute" unicode="&#x106;" horiz-adv-x="360" 
d="M325 280v-82q0 -71 -5.5 -99t-24.5 -54q-39 -55 -114 -55t-114 55q-18 27 -23.5 54.5t-5.5 98.5v271q0 70 5.5 98.5t23.5 54.5q39 55 114 55q74 0 114 -55q18 -26 24 -55.5t6 -97.5v-42h-91v89q0 46 -12 65t-41 19t-41 -19t-12 -65v-365q0 -46 12 -65t41 -19t41 19t12 65
v129h91zM204 858h88l-98 -116h-46z" />
    <glyph glyph-name="cacute" unicode="&#x107;" horiz-adv-x="289" 
d="M184 204h77v-74q0 -46 -4.5 -67t-18.5 -37q-30 -33 -90 -33q-61 0 -91 33q-14 16 -18.5 36t-4.5 68v253q0 48 4.5 68t18.5 36q30 33 91 33q60 0 90 -33q14 -16 18.5 -37t4.5 -67v-55h-77v62q0 38 -7.5 52t-29.5 14q-21 0 -28.5 -14t-7.5 -52v-267q0 -37 8 -51t29 -14
t28.5 13.5t7.5 51.5v81zM176 698h88l-98 -116h-46z" />
    <glyph glyph-name="Ccaron" unicode="&#x10c;" horiz-adv-x="360" 
d="M325 280v-82q0 -71 -5.5 -99t-24.5 -54q-39 -55 -114 -55t-114 55q-18 27 -23.5 54.5t-5.5 98.5v271q0 70 5.5 98.5t23.5 54.5q39 55 114 55q74 0 114 -55q18 -26 24 -55.5t6 -97.5v-42h-91v89q0 46 -12 65t-41 19t-41 -19t-12 -65v-365q0 -46 12 -65t41 -19t41 19t12 65
v129h91zM68 856h53l58 -63l61 63h52l-86 -112h-52z" />
    <glyph glyph-name="ccaron" unicode="&#x10d;" horiz-adv-x="289" 
d="M183 204h77v-74q0 -46 -4.5 -67t-18.5 -37q-30 -33 -90 -33t-90 33q-14 16 -18.5 36t-4.5 68v253q0 48 4.5 68t18.5 36q30 33 90 33t90 -33q14 -16 18.5 -37t4.5 -67v-55h-77v62q0 38 -7.5 52t-28.5 14t-28.5 -14t-7.5 -52v-267q0 -38 7.5 -51.5t28.5 -13.5t28.5 13.5
t7.5 51.5v81zM29 696h53l58 -63l61 63h52l-86 -112h-52z" />
    <glyph glyph-name="Dcaron" unicode="&#x10e;" horiz-adv-x="350" 
d="M45 667h157q64 0 87 -23.5t23 -90.5v-439q0 -66 -23 -90t-87 -24h-157v667zM135 584v-501h43q26 0 35 11.5t9 46.5v385q0 35 -9 46.5t-35 11.5h-43zM63 856h53l58 -63l61 63h52l-86 -112h-52z" />
    <glyph glyph-name="dcaron" unicode="&#x10f;" horiz-adv-x="381" 
d="M261 667v-667h-77v36q-25 -43 -68 -43q-45 0 -68 33q-9 13 -11.5 27t-2.5 51v293q0 60 12 84q21 39 68 39q36 0 70 -43v190h77zM111 387v-261q0 -38 7.5 -51.5t28.5 -13.5q22 0 29.5 13.5t7.5 51.5v261q0 38 -7.5 51.5t-28.5 13.5q-22 0 -29.5 -13.5t-7.5 -51.5zM376 667
v-56q0 -46 -19 -77t-53 -39v22q30 17 30 59h-30v91h72z" />
    <glyph glyph-name="Dcroat" unicode="&#x110;" horiz-adv-x="350" 
d="M46 0v307h-47v83h47v277h155q65 0 88 -23.5t23 -90.5v-439q0 -66 -23.5 -90t-87.5 -24h-155zM136 390h46v-83h-46v-224h41q27 0 36 11.5t9 46.5v385q0 35 -9 46.5t-36 11.5h-41v-194z" />
    <glyph glyph-name="dcroat" unicode="&#x111;" horiz-adv-x="299" 
d="M261 613h33v-53h-33v-560h-77v36q-25 -43 -69 -43t-67 33q-9 13 -11.5 27t-2.5 51v293q0 60 12 84q20 39 68 39q36 0 70 -43v83h-70v53h70v60h77v-60zM111 387v-261q0 -38 7.5 -51.5t28.5 -13.5q22 0 29.5 13.5t7.5 51.5v261q0 38 -7.5 51.5t-29.5 13.5
q-21 0 -28.5 -13.5t-7.5 -51.5z" />
    <glyph glyph-name="Emacron" unicode="&#x112;" horiz-adv-x="291" 
d="M252 306h-116v-223h130v-83h-220v667h220v-83h-130v-195h116v-83zM264 824v-49h-223v49h223z" />
    <glyph glyph-name="emacron" unicode="&#x113;" horiz-adv-x="295" 
d="M184 191h77v-60q0 -48 -4.5 -68.5t-18.5 -36.5q-30 -33 -90 -33q-61 0 -91 33q-14 16 -18.5 36.5t-4.5 68.5v252q0 48 4.5 68t18.5 36q30 33 91 33q60 0 90 -33q14 -16 18.5 -36.5t4.5 -67.5v-144h-150v-118q0 -37 7.5 -50t29.5 -13q21 0 28.5 13t7.5 50v70zM111 302h73
v88q0 38 -7.5 51.5t-28.5 13.5q-22 0 -29.5 -13.5t-7.5 -51.5v-88zM259 664v-49h-223v49h223z" />
    <glyph glyph-name="Edotaccent" unicode="&#x116;" horiz-adv-x="291" 
d="M251 306h-116v-223h130v-83h-220v667h220v-83h-130v-195h116v-83zM187 848v-95h-70v95h70z" />
    <glyph glyph-name="edotaccent" unicode="&#x117;" horiz-adv-x="295" 
d="M184 191h77v-60q0 -48 -4.5 -68.5t-18.5 -36.5q-30 -33 -90 -33q-61 0 -91 33q-14 16 -18.5 36.5t-4.5 68.5v252q0 48 4.5 68t18.5 36q30 33 91 33q60 0 90 -33q14 -16 18.5 -36.5t4.5 -67.5v-144h-150v-118q0 -37 7.5 -50t29.5 -13q21 0 28.5 13t7.5 50v70zM111 302h73
v88q0 38 -7.5 51.5t-28.5 13.5q-22 0 -29.5 -13.5t-7.5 -51.5v-88zM116 685h63v-90h-63v90z" />
    <glyph glyph-name="Eogonek" unicode="&#x118;" horiz-adv-x="291" 
d="M265 83v-83q-56 -39 -56 -82t75 -45v-36q-18 -1 -29 -1q-51 0 -79.5 19.5t-28.5 54.5q0 47 55 90h-157v667h220v-83h-130v-195h116v-83h-116v-223h130z" />
    <glyph glyph-name="eogonek" unicode="&#x119;" horiz-adv-x="295" 
d="M184 191h77v-60q0 -58 -7 -78.5t-36 -42.5q-53 -42 -53 -79q0 -45 74 -47v-36q-18 -1 -28 -1q-47 0 -74.5 19.5t-27.5 52.5q0 38 34 75q-44 1 -71 20q-23 16 -30.5 39t-7.5 78v252q0 48 4.5 68t18.5 36q30 33 91 33q59 0 90 -33q14 -16 18.5 -37t4.5 -67v-144h-150v-118
q0 -37 7.5 -50t29.5 -13q21 0 28.5 13t7.5 50v70zM111 302h73v88q0 38 -7.5 51.5t-28.5 13.5q-22 0 -29.5 -13.5t-7.5 -51.5v-88z" />
    <glyph glyph-name="Ecaron" unicode="&#x11a;" horiz-adv-x="291" 
d="M252 306h-117v-223h130v-83h-220v667h220v-83h-130v-195h117v-83zM40 856h53l58 -63l61 63h52l-86 -112h-52z" />
    <glyph glyph-name="ecaron" unicode="&#x11b;" horiz-adv-x="295" 
d="M184 191h77v-60q0 -48 -4.5 -68.5t-18.5 -36.5q-30 -33 -90 -33q-61 0 -91 33q-14 16 -18.5 36.5t-4.5 68.5v252q0 48 4.5 68t18.5 36q30 33 91 33q60 0 90 -33q14 -16 18.5 -36.5t4.5 -67.5v-144h-150v-118q0 -37 7.5 -50t29.5 -13q21 0 28.5 13t7.5 50v70zM111 302h73
v88q0 38 -7.5 51.5t-28.5 13.5q-22 0 -29.5 -13.5t-7.5 -51.5v-88zM35 696h53l58 -63l61 63h52l-86 -112h-52z" />
    <glyph glyph-name="Gbreve" unicode="&#x11e;" horiz-adv-x="340" 
d="M174 358h127v-358h-51l-9 27q-38 -37 -82 -37q-31 0 -58 15t-41 40q-22 40 -22 132v311q0 56 6 84.5t22 52.5q35 52 107 52q35 0 64 -14.5t41 -38.5q15 -30 15 -105v-60h-82v77q0 34 -9 49t-30 15q-25 0 -34.5 -17.5t-9.5 -63.5v-345q2 -58 3.5 -70t6.5 -19
q10 -18 33 -18q22 0 31 15t9 51v142h-37v83zM237 842h48q-14 -37 -31 -53q-31 -31 -84 -31q-57 0 -88 34q-16 16 -28 50h48q22 -39 68 -39t67 39z" />
    <glyph glyph-name="gbreve" unicode="&#x11f;" horiz-adv-x="299" 
d="M261 513v-550q0 -63 -28 -91q-32 -32 -85 -32q-42 0 -73 20t-38 53q-3 9 -3 32h77q1 -40 35 -40q38 0 38 40v85q-27 -37 -73 -37q-42 0 -64 35q-13 22 -13 84v289q0 57 12 82q19 37 66 37q40 0 72 -43v36h77zM111 387v-261q0 -38 7.5 -51.5t28.5 -13.5q22 0 29.5 13.5
t7.5 51.5v261q0 38 -7.5 51.5t-28.5 13.5q-22 0 -29.5 -13.5t-7.5 -51.5zM217 682h48q-14 -37 -31 -53q-31 -31 -84 -31q-57 0 -88 34q-17 19 -28 50h48q22 -39 68 -39q45 0 67 39z" />
    <glyph glyph-name="Gcommaaccent" unicode="&#x122;" horiz-adv-x="340" 
d="M174 358h127v-358h-51l-9 27q-38 -37 -82 -37q-31 0 -58 15t-41 40q-22 40 -22 132v311q0 56 6 84.5t22 52.5q35 52 107 52q35 0 64 -14.5t41 -38.5q15 -30 15 -105v-60h-82v77q0 34 -9 49t-30 15q-25 0 -34.5 -17.5t-9.5 -63.5v-345q2 -58 3.5 -70t6.5 -19
q10 -18 33 -18q22 0 31 15t9 51v142h-37v83zM205 -47v-59q0 -46 -20 -76t-56 -38v23q32 15 32 54h-32v96h76z" />
    <glyph glyph-name="gcommaaccent" unicode="&#x123;" horiz-adv-x="299" 
d="M261 513v-550q0 -63 -28 -91q-32 -32 -85 -32q-42 0 -73 20t-38 53q-3 9 -3 32h77q1 -40 35 -40q38 0 38 40v85q-27 -37 -73 -37q-42 0 -64 35q-13 22 -13 84v289q0 57 12 82q19 37 66 37q40 0 72 -43v36h77zM111 387v-261q0 -38 7.5 -51.5t28.5 -13.5q22 0 29.5 13.5
t7.5 51.5v261q0 38 -7.5 51.5t-28.5 13.5q-22 0 -29.5 -13.5t-7.5 -51.5zM100 580v56q0 47 19 77t53 38v-22q-30 -17 -30 -58h30v-91h-72z" />
    <glyph glyph-name="Imacron" unicode="&#x12a;" horiz-adv-x="181" 
d="M135 667v-667h-90v667h90zM178 824v-49h-176v49h176z" />
    <glyph glyph-name="imacron" unicode="&#x12b;" horiz-adv-x="154" 
d="M115 513v-513h-77v513h77zM160 664v-49h-167v49h167z" />
    <glyph glyph-name="Iogonek" unicode="&#x12e;" horiz-adv-x="181" 
d="M135 667v-667q-55 -42 -55 -82q0 -43 74 -45v-36q-18 -1 -29 -1q-51 0 -79.5 19.5t-28.5 54.5q0 45 55 90h-27v667h90z" />
    <glyph glyph-name="iogonek" unicode="&#x12f;" horiz-adv-x="154" 
d="M116 513v-513q-56 -41 -56 -82q0 -21 19.5 -33t54.5 -12v-36q-17 -1 -27 -1q-47 0 -75 19.5t-28 52.5q0 48 55 92h-20v513h77zM116 667v-106h-77v106h77z" />
    <glyph glyph-name="Idotaccent" unicode="&#x130;" horiz-adv-x="181" 
d="M135 667v-667h-90v667h90zM125 848v-95h-70v95h70z" />
    <glyph glyph-name="dotlessi" unicode="&#x131;" horiz-adv-x="154" 
d="M116 513v-513h-77v513h77z" />
    <glyph glyph-name="Kcommaaccent" unicode="&#x136;" horiz-adv-x="345" 
d="M209 336l129 -336h-87l-116 302v-302h-90v667h90v-297l93 297h88zM214 -47v-59q0 -46 -20 -76t-56 -38v23q32 15 32 54h-32v96h76z" />
    <glyph glyph-name="kcommaaccent" unicode="&#x137;" horiz-adv-x="281" 
d="M39 667h77v-359l76 205h81l-88 -196l88 -317h-81l-60 230l-16 -36v-194h-77v667zM180 -47v-56q0 -92 -72 -108v22q30 14 30 51h-30v91h72z" />
    <glyph glyph-name="Lacute" unicode="&#x139;" horiz-adv-x="289" 
d="M135 667v-584h143v-83h-233v667h90zM121 858h88l-98 -116h-46z" />
    <glyph glyph-name="lacute" unicode="&#x13a;" horiz-adv-x="154" 
d="M116 667v-667h-77v667h77zM102 858h88l-98 -116h-46z" />
    <glyph glyph-name="Lcommaaccent" unicode="&#x13b;" horiz-adv-x="289" 
d="M135 667v-584h143v-83h-233v667h90zM186 -47v-59q0 -46 -20 -76t-56 -38v23q32 15 32 54h-32v96h76z" />
    <glyph glyph-name="lcommaaccent" unicode="&#x13c;" horiz-adv-x="154" 
d="M116 667v-667h-77v667h77zM117 -47v-56q0 -92 -72 -108v22q30 13 30 51h-30v91h72z" />
    <glyph glyph-name="Lcaron" unicode="&#x13d;" horiz-adv-x="289" 
d="M135 667v-584h143v-83h-233v667h90zM272 667v-59q0 -56 -27 -89q-20 -24 -49 -32v23q32 18 32 61h-32v96h76z" />
    <glyph glyph-name="lcaron" unicode="&#x13e;" horiz-adv-x="235" 
d="M116 667v-667h-77v667h77zM231 667v-56q0 -46 -19 -77t-53 -39v22q30 17 30 59h-30v91h72z" />
    <glyph glyph-name="Lslash" unicode="&#x141;" horiz-adv-x="289" 
d="M136 430l93 70v-91l-93 -71v-255h143v-83h-233v279l-47 -33v92l47 33v296h90v-237z" />
    <glyph glyph-name="lslash" unicode="&#x142;" horiz-adv-x="154" 
d="M116 444l48 38v-92l-48 -37v-353h-77v303l-48 -37v92l48 37v278h77v-229z" />
    <glyph glyph-name="Nacute" unicode="&#x143;" horiz-adv-x="369" 
d="M324 0h-99l-114 516q2 -33 3 -43l4 -62q2 -22 2 -42l9 -369h-84v667h93l97 -406q6 -30 8 -38q3 -10 7 -37q2 -7 5 -23q-2 28 -2 38q-2 27 -6 83q-2 38 -2 51l-8 332h87v-667zM215 858h88l-98 -116h-46z" />
    <glyph glyph-name="nacute" unicode="&#x144;" horiz-adv-x="304" 
d="M116 513v-34q33 41 74 41q48 0 66 -41q10 -24 10 -77v-402h-77v387q0 38 -7.5 51.5t-29.5 13.5q-21 0 -28.5 -13.5t-7.5 -51.5v-387h-77v513h77zM170 698h88l-98 -116h-46z" />
    <glyph glyph-name="Ncommaaccent" unicode="&#x145;" horiz-adv-x="369" 
d="M324 0h-99l-114 516q2 -33 3 -43l4 -62q2 -22 2 -42l9 -369h-84v667h93l97 -406q6 -30 8 -38q3 -10 7 -37q2 -7 5 -23q-2 28 -2 38q-2 27 -6 83q-2 38 -2 51l-8 332h87v-667zM226 -47v-59q0 -46 -20 -76t-56 -38v23q32 15 32 54h-32v96h76z" />
    <glyph glyph-name="ncommaaccent" unicode="&#x146;" horiz-adv-x="304" 
d="M116 513v-34q33 41 74 41q48 0 66 -41q10 -24 10 -77v-402h-77v387q0 38 -7.5 51.5t-29.5 13.5q-21 0 -28.5 -13.5t-7.5 -51.5v-387h-77v513h77zM192 -47v-56q0 -92 -72 -108v22q30 14 30 51h-30v91h72z" />
    <glyph glyph-name="Ncaron" unicode="&#x147;" horiz-adv-x="369" 
d="M324 0h-99l-114 516q2 -33 3 -43l4 -62q2 -22 2 -42l9 -369h-84v667h93l97 -406q6 -30 8 -38q3 -10 7 -37q2 -7 5 -23q-2 28 -2 38q-2 27 -6 83q-2 38 -2 51l-8 332h87v-667zM72 856h53l58 -63l61 63h52l-86 -112h-52z" />
    <glyph glyph-name="ncaron" unicode="&#x148;" horiz-adv-x="304" 
d="M116 513v-34q33 41 74 41q48 0 66 -41q10 -24 10 -77v-402h-77v387q0 38 -7.5 51.5t-29.5 13.5q-21 0 -28.5 -13.5t-7.5 -51.5v-387h-77v513h77zM40 696h53l58 -63l61 63h52l-86 -112h-52z" />
    <glyph glyph-name="Omacron" unicode="&#x14c;" horiz-adv-x="363" 
d="M325 469v-271q0 -71 -5.5 -99t-24.5 -54q-38 -55 -114 -55q-75 0 -114 55q-18 26 -23.5 54.5t-5.5 98.5v271q0 70 5.5 98.5t23.5 54.5q39 55 114 55q76 0 114 -55q19 -26 24.5 -54t5.5 -99zM128 516v-365q0 -46 12 -65t41 -19q30 0 42 18.5t12 65.5v365q0 47 -12 65.5
t-42 18.5q-29 0 -41 -19t-12 -65zM293 824v-49h-223v49h223z" />
    <glyph glyph-name="omacron" unicode="&#x14d;" horiz-adv-x="295" 
d="M261 389v-258q0 -48 -4.5 -68.5t-18.5 -36.5q-30 -33 -90 -33q-61 0 -91 33q-14 16 -18.5 37t-4.5 68v267q0 59 30 90.5t86 31.5q62 0 90 -37q13 -17 17 -35t4 -59zM111 390v-267q0 -38 7.5 -51.5t28.5 -13.5q22 0 29.5 13.5t7.5 51.5v267q0 38 -7.5 51.5t-28.5 13.5
q-22 0 -29.5 -13.5t-7.5 -51.5zM259 664v-49h-223v49h223z" />
    <glyph glyph-name="Ohungarumlaut" unicode="&#x150;" horiz-adv-x="363" 
d="M325 469v-271q0 -71 -5.5 -99t-24.5 -54q-38 -55 -114 -55q-75 0 -114 55q-18 26 -23.5 54.5t-5.5 98.5v271q0 70 5.5 98.5t23.5 54.5q39 55 114 55q76 0 114 -55q19 -26 24.5 -54t5.5 -99zM128 516v-365q0 -46 12 -65t41 -19q30 0 42 18.5t12 65.5v365q0 47 -12 65.5
t-42 18.5q-29 0 -41 -19t-12 -65zM124 858h88l-98 -116h-46zM274 858h88l-98 -116h-46z" />
    <glyph glyph-name="ohungarumlaut" unicode="&#x151;" horiz-adv-x="295" 
d="M261 389v-258q0 -48 -4.5 -68.5t-18.5 -36.5q-30 -33 -90 -33q-61 0 -91 33q-14 16 -18.5 37t-4.5 68v267q0 59 30 90.5t86 31.5q62 0 90 -37q13 -17 17 -35t4 -59zM111 390v-267q0 -38 7.5 -51.5t28.5 -13.5q22 0 29.5 13.5t7.5 51.5v267q0 38 -7.5 51.5t-28.5 13.5
q-22 0 -29.5 -13.5t-7.5 -51.5zM113 698h88l-98 -116h-46zM243 698h88l-98 -116h-46z" />
    <glyph glyph-name="OE" unicode="&#x152;" horiz-adv-x="467" 
d="M307 304v-221h135v-83h-194q-1 0 -4.5 -0.5t-10 -1t-13.5 -0.5l-45 -1q-65 0 -101 32q-22 19 -29 49t-7 100v311q0 75 9 105.5t35 50.5q36 25 96 25l42 -1q7 0 13.5 -0.5t10 -1t4.5 -0.5h194v-83h-135v-197h116v-83h-116zM128 528v-389q0 -36 10 -51t34 -15q25 0 35 15
t10 51v389q0 36 -10 51t-34 15q-25 0 -35 -15t-10 -51z" />
    <glyph glyph-name="oe" unicode="&#x153;" horiz-adv-x="445" 
d="M334 190h77v-68q0 -68 -27 -96q-30 -33 -82 -33q-44 0 -76 25q-31 -16 -45 -20.5t-35 -4.5q-55 0 -85 32q-16 15 -21.5 34t-5.5 56v280q0 42 7 63t27 37q31 26 79 26q39 0 79 -24q32 24 78 24q63 0 91 -42q16 -23 16 -84v-157h-150v-114q0 -38 7.5 -52t29.5 -14
q21 0 28.5 14t7.5 52v66zM261 305h73v87q0 38 -7.5 51t-29.5 13q-21 0 -28.5 -13.5t-7.5 -50.5v-87zM111 392v-268q0 -38 7.5 -52t29.5 -14q21 0 28.5 14t7.5 52v268q0 37 -7.5 50.5t-28.5 13.5q-22 0 -29.5 -13.5t-7.5 -50.5z" />
    <glyph glyph-name="Racute" unicode="&#x154;" horiz-adv-x="351" 
d="M45 667h149q37 0 53.5 -4t30.5 -15q32 -28 32 -134v-49q0 -68 -14 -93.5t-54 -32.5q24 -7 33.5 -13t16.5 -19q18 -30 18 -108v-83q0 -68 17 -116h-93q-14 48 -14 129v60q0 64 -10 90.5t-35 26.5h-40v-306h-90v667zM135 584v-203h53q20 0 26 13t6 57v63q0 44 -6 57t-26 13
h-53zM179 858h88l-98 -116h-46z" />
    <glyph glyph-name="racute" unicode="&#x155;" horiz-adv-x="219" 
d="M116 513v-58q19 34 36.5 47.5t42.5 13.5q7 0 21 -3v-84q-25 14 -44 14q-56 0 -56 -76v-367h-77v513h77zM127 698h88l-98 -116h-46z" />
    <glyph glyph-name="Rcommaaccent" unicode="&#x156;" horiz-adv-x="351" 
d="M45 667h149q37 0 53.5 -4t30.5 -15q32 -28 32 -134v-49q0 -68 -14 -93.5t-54 -32.5q24 -7 33.5 -13t16.5 -19q18 -30 18 -108v-83q0 -68 17 -116h-93q-14 48 -14 129v60q0 64 -10 90.5t-35 26.5h-40v-306h-90v667zM135 584v-203h53q20 0 26 13t6 57v63q0 44 -6 57t-26 13
h-53zM217 -47v-59q0 -46 -20 -76t-56 -38v23q32 15 32 54h-32v96h76z" />
    <glyph glyph-name="rcommaaccent" unicode="&#x157;" horiz-adv-x="219" 
d="M116 513v-58q19 34 36.5 47.5t42.5 13.5q7 0 21 -3v-84q-25 14 -44 14q-56 0 -56 -76v-367h-77v513h77zM113 -47v-56q0 -92 -72 -108v22q30 13 30 51h-30v91h72z" />
    <glyph glyph-name="Rcaron" unicode="&#x158;" horiz-adv-x="351" 
d="M45 667h149q37 0 53.5 -4t30.5 -15q32 -28 32 -134v-49q0 -68 -14 -93.5t-54 -32.5q24 -7 33.5 -13t16.5 -19q18 -30 18 -108v-83q0 -68 17 -116h-93q-14 48 -14 129v60q0 64 -10 90.5t-35 26.5h-40v-306h-90v667zM135 584v-203h53q20 0 26 13t6 57v63q0 44 -6 57t-26 13
h-53zM63 856h53l58 -63l61 63h52l-86 -112h-52z" />
    <glyph glyph-name="rcaron" unicode="&#x159;" horiz-adv-x="219" 
d="M115 513v-58q19 34 36.5 47.5t42.5 13.5q8 0 21 -3v-84q-25 14 -44 14q-56 0 -56 -76v-367h-77v513h77zM-3 696h53l58 -63l61 63h52l-86 -112h-52z" />
    <glyph glyph-name="Sacute" unicode="&#x15a;" horiz-adv-x="308" 
d="M277 445h-82v112q0 26 -8 37t-27 11q-41 0 -41 -57q0 -72 56 -155l41 -61q67 -101 67 -187q0 -72 -34.5 -113.5t-94.5 -41.5q-80 0 -110 59q-18 35 -18 104v91h82v-103q0 -44 9.5 -61.5t32.5 -17.5q43 0 43 70q0 46 -13.5 82.5t-51.5 91.5l-27 38q-70 98 -70 184
q0 73 34.5 111t99.5 38q69 0 97 -46q15 -26 15 -94v-92zM185 858h88l-98 -116h-46z" />
    <glyph glyph-name="sacute" unicode="&#x15b;" horiz-adv-x="271" 
d="M247 361h-73v25q0 65 -39 65q-36 0 -36 -46q0 -48 35 -80l40 -37q44 -41 61 -76t17 -84q0 -64 -30.5 -99.5t-86.5 -35.5q-116 0 -116 158v39h73v-39q0 -49 10 -69t35 -20q41 0 41 60q0 48 -40 89l-35 34q-45 45 -61 76.5t-16 73.5q0 60 29 92.5t84 32.5q56 0 82 -32
t26 -102v-25zM153 698h88l-98 -116h-46z" />
    <glyph glyph-name="Scedilla" unicode="&#x15e;" horiz-adv-x="308" 
d="M177 -9v-24q63 -23 63 -69q0 -61 -84 -61q-49 0 -89 29l19 22q32 -16 51 -16q14 0 23 8t9 21q0 15 -10 22.5t-39 14.5v56q-50 11 -72 48t-22 111v91h82v-103q0 -44 9.5 -61.5t33.5 -17.5q23 0 32.5 16t9.5 54q0 48 -13.5 83.5t-51.5 90.5l-27 38q-70 98 -70 184
q0 73 34.5 111t100.5 38q68 0 96 -46q15 -26 15 -94v-92h-82v112q0 26 -7.5 37t-26.5 11q-41 0 -41 -57q0 -41 11.5 -73t44.5 -82l40 -61q39 -61 53 -100t14 -87q0 -69 -34 -113q-25 -30 -72 -41z" />
    <glyph glyph-name="Scedilla" unicode="&#xf6c1;" horiz-adv-x="308" 
d="M177 -9v-24q63 -23 63 -69q0 -61 -84 -61q-49 0 -89 29l19 22q32 -16 51 -16q14 0 23 8t9 21q0 15 -10 22.5t-39 14.5v56q-50 11 -72 48t-22 111v91h82v-103q0 -44 9.5 -61.5t33.5 -17.5q23 0 32.5 16t9.5 54q0 48 -13.5 83.5t-51.5 90.5l-27 38q-70 98 -70 184
q0 73 34.5 111t100.5 38q68 0 96 -46q15 -26 15 -94v-92h-82v112q0 26 -7.5 37t-26.5 11q-41 0 -41 -57q0 -41 11.5 -73t44.5 -82l40 -61q39 -61 53 -100t14 -87q0 -69 -34 -113q-25 -30 -72 -41z" />
    <glyph glyph-name="scedilla" unicode="&#x15f;" horiz-adv-x="271" 
d="M150 -6v-27q64 -22 64 -69q0 -28 -21 -44.5t-57 -16.5q-46 0 -85 29l18 22q31 -16 51 -16q14 0 23 8t9 21q0 15 -10 22.5t-39 14.5v59q-44 12 -64 48.5t-20 105.5v39h73v-39q0 -49 10 -68.5t35 -19.5q41 0 41 59q0 49 -40 89l-34 34q-46 45 -62 76t-16 74q0 61 29 93
t84 32q56 0 82 -32t26 -102v-25h-73v25q0 65 -38 65q-37 0 -37 -46q0 -47 35 -80l40 -37q44 -41 61 -75.5t17 -84.5q0 -119 -102 -134z" />
    <glyph glyph-name="scedilla" unicode="&#xf6c2;" horiz-adv-x="271" 
d="M150 -6v-27q64 -22 64 -69q0 -28 -21 -44.5t-57 -16.5q-46 0 -85 29l18 22q31 -16 51 -16q14 0 23 8t9 21q0 15 -10 22.5t-39 14.5v59q-44 12 -64 48.5t-20 105.5v39h73v-39q0 -49 10 -68.5t35 -19.5q41 0 41 59q0 49 -40 89l-34 34q-46 45 -62 76t-16 74q0 61 29 93
t84 32q56 0 82 -32t26 -102v-25h-73v25q0 65 -38 65q-37 0 -37 -46q0 -47 35 -80l40 -37q44 -41 61 -75.5t17 -84.5q0 -119 -102 -134z" />
    <glyph glyph-name="Scaron" unicode="&#x160;" horiz-adv-x="308" 
d="M277 445h-82v112q0 26 -8 37t-27 11q-41 0 -41 -57q0 -72 56 -155l41 -61q67 -101 67 -187q0 -72 -34.5 -113.5t-94.5 -41.5q-80 0 -110 59q-18 35 -18 104v91h82v-103q0 -44 9.5 -61.5t32.5 -17.5q43 0 43 70q0 46 -13.5 82.5t-51.5 91.5l-27 38q-70 98 -70 184
q0 73 34.5 111t99.5 38q69 0 97 -46q15 -26 15 -94v-92zM42 856h53l58 -63l61 63h52l-86 -112h-52z" />
    <glyph glyph-name="scaron" unicode="&#x161;" horiz-adv-x="271" 
d="M247 361h-73v25q0 65 -39 65q-36 0 -36 -46q0 -48 35 -80l40 -37q44 -41 61 -76t17 -84q0 -64 -30.5 -99.5t-86.5 -35.5q-116 0 -116 158v39h73v-39q0 -49 10 -69t35 -20q41 0 41 60q0 48 -40 89l-35 34q-45 45 -61 76.5t-16 73.5q0 60 29 92.5t84 32.5q56 0 82 -32
t26 -102v-25zM24 696h53l58 -63l61 63h52l-86 -112h-52z" />
    <glyph glyph-name="Tcommaaccent" unicode="&#x162;" horiz-adv-x="305" 
d="M197 584v-584h-90v584h-104v83h298v-83h-104zM190 -47v-59q0 -46 -20 -76t-56 -38v23q32 15 32 54h-32v96h76z" />
    <glyph glyph-name="Tcommaaccent" unicode="&#x21a;" horiz-adv-x="305" 
d="M197 584v-584h-90v584h-104v83h298v-83h-104zM190 -47v-59q0 -46 -20 -76t-56 -38v23q32 15 32 54h-32v96h76z" />
    <glyph glyph-name="tcommaaccent" unicode="&#x163;" horiz-adv-x="187" 
d="M127 620v-107h43v-67h-43v-353q0 -22 7 -28t33 -7l7 -1v-57q-28 -7 -46 -7q-40 0 -62 20q-16 16 -16 65v368h-43v67h43v107h77zM146 -47v-56q0 -92 -72 -108v22q30 13 30 51h-30v91h72z" />
    <glyph glyph-name="tcommaaccent" unicode="&#x21b;" horiz-adv-x="187" 
d="M127 620v-107h43v-67h-43v-353q0 -22 7 -28t33 -7l7 -1v-57q-28 -7 -46 -7q-40 0 -62 20q-16 16 -16 65v368h-43v67h43v107h77zM146 -47v-56q0 -92 -72 -108v22q30 13 30 51h-30v91h72z" />
    <glyph glyph-name="Tcaron" unicode="&#x164;" horiz-adv-x="305" 
d="M197 584v-584h-90v584h-104v83h298v-83h-104zM40 856h53l58 -63l61 63h52l-86 -112h-52z" />
    <glyph glyph-name="tcaron" unicode="&#x165;" horiz-adv-x="240" 
d="M127 620v-107h43v-67h-43v-353q0 -22 7 -28t33 -7l7 -1v-57q-28 -7 -46 -7q-40 0 -62 20q-16 16 -16 65v368h-43v67h43v107h77zM239 728v-56q0 -46 -19 -77t-53 -39v22q30 17 30 59h-30v91h72z" />
    <glyph glyph-name="Umacron" unicode="&#x16a;" horiz-adv-x="371" 
d="M329 667v-469q0 -71 -5.5 -99t-24.5 -54q-38 -55 -114 -55q-75 0 -114 55q-18 26 -23.5 54.5t-5.5 98.5v469h90v-516q0 -46 12 -65t41 -19q30 0 42 18.5t12 65.5v516h90zM297 824v-49h-223v49h223z" />
    <glyph glyph-name="umacron" unicode="&#x16b;" horiz-adv-x="304" 
d="M189 0v34q-29 -41 -75 -41q-48 0 -66 41q-9 23 -9 77v402h77v-387q0 -38 7.5 -51.5t29.5 -13.5q21 0 28.5 14t7.5 52v386h77v-513h-77zM264 664v-49h-223v49h223z" />
    <glyph glyph-name="Uring" unicode="&#x16e;" horiz-adv-x="371" 
d="M329 667v-469q0 -71 -5.5 -99t-24.5 -54q-38 -55 -114 -55q-75 0 -114 55q-18 26 -23.5 54.5t-5.5 98.5v469h90v-516q0 -46 12 -65t41 -19q30 0 42 18.5t12 65.5v516h90zM185 880q34 0 57 -23.5t23 -57.5q0 -33 -23.5 -56t-56.5 -23q-34 0 -57 23t-23 57t23 57t57 23z
M185 848q-20 0 -34 -14t-14 -34t14 -34t34 -14t34 14t14 33q0 21 -14 35t-34 14z" />
    <glyph glyph-name="uring" unicode="&#x16f;" horiz-adv-x="304" 
d="M189 0v34q-29 -41 -75 -41q-48 0 -66 41q-9 23 -9 77v402h77v-387q0 -38 7.5 -51.5t29.5 -13.5q21 0 28.5 14t7.5 52v386h77v-513h-77zM142 720q34 0 57 -23t23 -57q0 -33 -23.5 -56.5t-56.5 -23.5t-56.5 24t-23.5 57q0 32 24 55.5t56 23.5zM142 688q-19 0 -33.5 -14
t-14.5 -33q0 -20 14 -34.5t34 -14.5t34 14t14 34t-14 34t-34 14z" />
    <glyph glyph-name="Uhungarumlaut" unicode="&#x170;" horiz-adv-x="371" 
d="M329 667v-469q0 -71 -5.5 -99t-24.5 -54q-38 -55 -114 -55q-75 0 -114 55q-18 26 -23.5 54.5t-5.5 98.5v469h90v-516q0 -46 12 -65t41 -19q30 0 42 18.5t12 65.5v516h90zM128 858h88l-98 -116h-46zM278 858h88l-98 -116h-46z" />
    <glyph glyph-name="uhungarumlaut" unicode="&#x171;" horiz-adv-x="304" 
d="M189 0v34q-29 -41 -75 -41q-48 0 -66 41q-9 23 -9 77v402h77v-387q0 -38 7.5 -51.5t29.5 -13.5q21 0 28.5 14t7.5 52v386h77v-513h-77zM118 698h88l-98 -116h-46zM248 698h88l-98 -116h-46z" />
    <glyph glyph-name="Uogonek" unicode="&#x172;" horiz-adv-x="371" 
d="M239 667h90v-469q0 -79 -7.5 -109.5t-35.5 -59.5q-31 -34 -31 -62q0 -45 74 -45v-37h-29q-51 0 -79.5 19.5t-28.5 54.5q0 15 7 32q-7 -1 -16 -1q-72 0 -112 55q-18 26 -23.5 54.5t-5.5 98.5v469h90v-516q0 -46 12 -65t41 -19q30 0 42 18.5t12 65.5v516z" />
    <glyph glyph-name="uogonek" unicode="&#x173;" horiz-adv-x="304" 
d="M266 513v-513q-56 -41 -56 -82q0 -45 75 -45v-36q-18 -1 -28 -1q-47 0 -75 19.5t-28 52.5q0 47 55 92h-20v34q-29 -41 -75 -41q-48 0 -66 41q-9 23 -9 77v402h77v-387q0 -38 7.5 -51.5t29.5 -13.5q21 0 28.5 14t7.5 52v386h77z" />
    <glyph glyph-name="Ydieresis" unicode="&#x178;" horiz-adv-x="300" 
d="M192 273v-273h-90v273l-105 394h91l37 -152q15 -62 24 -116q8 52 25 116l42 152h88zM123 848v-95h-70v95h70zM248 848v-95h-70v95h70z" />
    <glyph glyph-name="Zacute" unicode="&#x179;" horiz-adv-x="293" 
d="M259 83v-83h-238v60l153 524h-119v83h215v-58l-154 -526h143zM190 858h88l-98 -116h-46z" />
    <glyph glyph-name="zacute" unicode="&#x17a;" horiz-adv-x="271" 
d="M254 513v-73l-152 -367h152v-73h-237v73l152 367h-121v73h206zM180 698h88l-98 -116h-46z" />
    <glyph glyph-name="Zdotaccent" unicode="&#x17b;" horiz-adv-x="293" 
d="M259 83v-83h-238v60l153 524h-119v83h215v-58l-154 -526h143zM194 848v-95h-70v95h70z" />
    <glyph glyph-name="zdotaccent" unicode="&#x17c;" horiz-adv-x="271" 
d="M254 513v-73l-152 -367h152v-73h-237v73l152 367h-121v73h206zM124 685h63v-90h-63v90z" />
    <glyph glyph-name="Zcaron" unicode="&#x17d;" horiz-adv-x="293" 
d="M259 83v-83h-238v60l153 524h-119v83h215v-58l-154 -526h143zM47 856h53l58 -63l61 63h52l-86 -112h-52z" />
    <glyph glyph-name="zcaron" unicode="&#x17e;" horiz-adv-x="271" 
d="M254 513v-73l-152 -367h152v-73h-237v73l152 367h-121v73h206zM44 696h53l58 -63l61 63h52l-86 -112h-52z" />
    <glyph glyph-name="florin" unicode="&#x192;" 
d="M275 446h-44l-80 -454q-10 -54 -15 -71t-17 -36q-29 -45 -102 -45q-5 0 -29 1l12 68q16 -1 21 -1q26 0 36 13q6 9 17 71l80 454h-42l12 67h42l24 139q7 36 12 49.5t17 23.5q19 16 54 16l24 -1h29l-12 -69h-16q-28 0 -33 -31l-23 -127h44z" />
    <glyph glyph-name="Scommaaccent" unicode="&#x218;" horiz-adv-x="308" 
d="M277 445h-82v112q0 26 -8 37t-27 11q-41 0 -41 -57q0 -72 56 -155l41 -61q67 -101 67 -187q0 -72 -34.5 -113.5t-94.5 -41.5q-80 0 -110 59q-18 35 -18 104v91h82v-103q0 -44 9.5 -61.5t32.5 -17.5q43 0 43 70q0 46 -13.5 82.5t-51.5 91.5l-27 38q-70 98 -70 184
q0 73 34.5 111t99.5 38q69 0 97 -46q15 -26 15 -94v-92zM196 -47v-59q0 -46 -20 -76t-56 -38v23q32 15 32 54h-32v96h76z" />
    <glyph glyph-name="scommaaccent" unicode="&#x219;" horiz-adv-x="271" 
d="M247 361h-73v25q0 65 -39 65q-36 0 -36 -46q0 -48 35 -80l40 -37q44 -41 61 -76t17 -84q0 -64 -30.5 -99.5t-86.5 -35.5q-116 0 -116 158v39h73v-39q0 -49 10 -69t35 -20q41 0 41 60q0 48 -40 89l-35 34q-45 45 -61 76.5t-16 73.5q0 60 29 92.5t84 32.5q56 0 82 -32
t26 -102v-25zM175 -47v-56q0 -92 -72 -108v22q30 14 30 51h-30v91h72z" />
    <glyph glyph-name="circumflex" unicode="&#x2c6;" horiz-adv-x="500" 
d="M362 584h-53l-58 63l-61 -63h-52l86 112h52z" />
    <glyph glyph-name="caron" unicode="&#x2c7;" horiz-adv-x="500" 
d="M138 696h53l58 -63l61 63h52l-86 -112h-52z" />
    <glyph glyph-name="breve" unicode="&#x2d8;" horiz-adv-x="500" 
d="M317 682h48q-14 -37 -31 -53q-31 -31 -84 -31q-57 0 -88 34q-17 19 -28 50h48q22 -39 68 -39q45 0 67 39z" />
    <glyph glyph-name="dotaccent" unicode="&#x2d9;" horiz-adv-x="500" 
d="M218 685h63v-90h-63v90z" />
    <glyph glyph-name="ring" unicode="&#x2da;" horiz-adv-x="500" 
d="M240 720q34 0 57 -23t23 -57q0 -33 -23.5 -56.5t-56.5 -23.5t-56.5 24t-23.5 57q0 32 24 55.5t56 23.5zM240 688q-19 0 -33.5 -14t-14.5 -33q0 -20 14 -34.5t34 -14.5t34 14t14 34t-14 34t-34 14z" />
    <glyph glyph-name="ogonek" unicode="&#x2db;" horiz-adv-x="500" 
d="M266 3h56q-55 -40 -55 -82q0 -43 74 -45v-36q-18 -1 -28 -1q-47 0 -74.5 19.5t-27.5 53.5q0 49 55 91z" />
    <glyph glyph-name="tilde" unicode="&#x2dc;" horiz-adv-x="500" 
d="M341 685h25q-29 -83 -77 -83q-15 0 -33 9l-25 11q-20 9 -33 9q-29 0 -41 -36h-23q7 41 28.5 65t50.5 24q19 0 42 -9l25 -11q14 -6 25 -6q19 0 32 21z" />
    <glyph glyph-name="hungarumlaut" unicode="&#x2dd;" horiz-adv-x="500" 
d="M216 698h88l-98 -116h-46zM346 698h88l-98 -116h-46z" />
    <glyph glyph-name="Delta" unicode="&#x394;" horiz-adv-x="667" 
d="M27 0l264 667h83l266 -667h-613zM137 72h392l-196 502z" />
    <glyph glyph-name="Delta" unicode="&#x2206;" horiz-adv-x="667" 
d="M27 0l264 667h83l266 -667h-613zM137 72h392l-196 502z" />
    <glyph glyph-name="endash" unicode="&#x2013;" 
d="M320 296v-79h-273v79h273z" />
    <glyph glyph-name="emdash" unicode="&#x2014;" horiz-adv-x="377" 
d="M377 296v-79h-377v79h377z" />
    <glyph glyph-name="quoteleft" unicode="&#x2018;" horiz-adv-x="170" 
d="M47 433v101q0 67 28 106q21 29 49 38v-21q-34 -20 -36 -73l1 -3l2 -28h33v-120h-77z" />
    <glyph glyph-name="quoteright" unicode="&#x2019;" horiz-adv-x="170" 
d="M124 667v-101q0 -65 -28 -106q-21 -30 -49 -37v21q33 22 33 76v27h-33v120h77z" />
    <glyph glyph-name="quotesinglbase" unicode="&#x201a;" horiz-adv-x="170" 
d="M124 120v-101q0 -65 -28 -106q-21 -30 -49 -37v21q33 23 33 76v27h-33v120h77z" />
    <glyph glyph-name="quotedblleft" unicode="&#x201c;" horiz-adv-x="293" 
d="M170 429v108q0 67 28 106q21 30 49 37v-20q-35 -24 -35 -76v-28h35v-127h-77zM47 429v108q0 68 27 106q21 30 50 37v-20q-36 -24 -36 -77v-27h36v-127h-77z" />
    <glyph glyph-name="quotedblright" unicode="&#x201d;" horiz-adv-x="293" 
d="M124 667v-108q0 -65 -28 -106q-21 -30 -49 -37v21q35 23 35 76v27h-35v127h77zM247 667v-108q0 -59 -20 -96t-57 -47v21q36 23 36 76v27h-36v127h77z" />
    <glyph glyph-name="quotedblbase" unicode="&#x201e;" horiz-adv-x="293" 
d="M124 127v-108q0 -65 -28 -106q-21 -30 -49 -37v21q35 23 35 76v27h-35v127h77zM247 127v-108q0 -59 -20 -96t-57 -47v21q36 23 36 76v27h-36v127h77z" />
    <glyph glyph-name="dagger" unicode="&#x2020;" 
d="M140 667h83v-194h113v-72h-113v-561h-83v561h-110v72h110v194z" />
    <glyph glyph-name="daggerdbl" unicode="&#x2021;" 
d="M140 667h83v-174h113v-72h-113v-296h113v-72h-113v-213h-83v213h-110v72h110v296h-110v72h110v174z" />
    <glyph glyph-name="bullet" unicode="&#x2022;" horiz-adv-x="667" 
d="M337 477q55 0 95.5 -41t40.5 -97q0 -58 -40.5 -98.5t-97.5 -40.5t-98 40.5t-41 97.5q0 58 41 98.5t100 40.5z" />
    <glyph glyph-name="ellipsis" unicode="&#x2026;" horiz-adv-x="510" 
d="M124 120v-120h-77v120h77zM294 120v-120h-77v120h77zM464 120v-120h-77v120h77z" />
    <glyph glyph-name="perthousand" unicode="&#x2030;" horiz-adv-x="738" 
d="M181 572v-166q0 -50 -11 -69q-17 -30 -66 -30q-43 0 -63 26q-14 19 -14 71v169q0 52 14 71q20 26 63 26q49 0 66 -30q11 -19 11 -68zM77 571v-164q0 -37 5 -47.5t22 -10.5t22 10.5t5 47.5v164q0 37 -5 47t-22 10t-22 -10t-5 -47zM430 667l-301 -667h-34l301 667h34z
M501 261v-166q0 -50 -11 -69q-17 -30 -66 -30q-44 0 -63 26q-14 19 -14 72v168q0 53 14 72q19 26 63 26q49 0 66 -30q11 -19 11 -69zM397 260v-164q0 -37 5 -47.5t22 -10.5t22 10.5t5 47.5v164q0 37 -5 47.5t-22 10.5t-22 -10.5t-5 -47.5zM710 261v-166q0 -50 -11 -69
q-17 -30 -66 -30q-43 0 -63 26q-14 19 -14 72v168q0 53 14 72q20 26 63 26q49 0 66 -30q11 -19 11 -69zM606 260v-164q0 -37 5 -47.5t22 -10.5t22 10.5t5 47.5v164q0 37 -5 47.5t-22 10.5t-22 -10.5t-5 -47.5z" />
    <glyph glyph-name="guilsinglleft" unicode="&#x2039;" horiz-adv-x="199" 
d="M81 256l75 -66v-93l-126 109v100l126 111v-94z" />
    <glyph glyph-name="guilsinglright" unicode="&#x203a;" horiz-adv-x="199" 
d="M117 257l-74 67v93l126 -110v-99l-126 -111v93z" />
    <glyph glyph-name="fraction" unicode="&#x2044;" horiz-adv-x="92" 
d="M189 657l-239 -657h-47l239 657h47z" />
    <glyph glyph-name="fraction" unicode="&#x2215;" horiz-adv-x="92" 
d="M189 657l-239 -657h-47l239 657h47z" />
    <glyph glyph-name="trademark" unicode="&#x2122;" horiz-adv-x="500" 
d="M134 614v-327h-61v327h-63v53h186v-53h-62zM375 287h-43l-38 239q-1 4 -1.5 7.5t-1.5 7.5t-1 5l-1 9l-1 6v-274h-56v380h81l41 -233l35 233h84v-380h-56v240v38q-1 -10 -2 -18.5t-1.5 -12.5t-0.5 -6q-4 -28 -4 -29z" />
    <glyph glyph-name="partialdiff" unicode="&#x2202;" horiz-adv-x="500" 
d="M84 602l10 68q87 -12 144 -36t105 -70q61 -57 94.5 -139.5t33.5 -177.5q0 -98 -41 -161q-30 -46 -77 -71.5t-102 -25.5q-91 0 -156 66.5t-65 159.5q0 92 60.5 156t147.5 64q47 0 80 -16t66 -56q-28 68 -48.5 98t-64.5 66q-51 35 -93 52t-94 23zM255 377q-62 0 -104.5 -48
t-42.5 -118q0 -67 42 -115t101 -48q60 0 101 49t41 120q0 69 -39 114.5t-99 45.5z" />
    <glyph glyph-name="summation" unicode="&#x2211;" horiz-adv-x="667" 
d="M599 750v-230h-70l-7 158h-409l252 -408l-252 -448h419l4 156h72v-228h-581v81l248 439l-248 401v79h572z" />
    <glyph glyph-name="minus" unicode="&#x2212;" 
d="M33 357h300v-67h-300v67z" />
    <glyph glyph-name="radical" unicode="&#x221a;" horiz-adv-x="667" 
d="M667 829v-72h-195l-212 -757h-96l-80 297h-84v72h147l35 -127q3 -12 14 -65q3 -13 7.5 -38t6.5 -36h5l5 21q4 18 13.5 61t14.5 67q8 35 51 191l107 386h261z" />
    <glyph glyph-name="notequal" unicode="&#x2260;" 
d="M99 223h-66v67h97l31 66h-128v67h159l42 89l61 -28l-28 -61h66v-67h-97l-31 -66h128v-67h-159l-39 -84l-62 29z" />
    <glyph glyph-name="lessequal" unicode="&#x2264;" horiz-adv-x="500" 
d="M466 614v-74l-351 -156l351 -155v-74l-433 195v67zM466 126v-72h-433v72h433z" />
    <glyph glyph-name="greaterequal" unicode="&#x2265;" horiz-adv-x="500" 
d="M33 155v74l351 156l-351 155v74l433 -198v-66zM33 54v72h433v-72h-433z" />
    <glyph glyph-name="lozenge" unicode="&#x25ca;" horiz-adv-x="667" 
d="M334 693l259 -359l-259 -360l-260 360zM334 604l-197 -270l197 -271l197 271z" />
    <glyph glyph-name="middot" unicode="&#xe000;" horiz-adv-x="170" 
d="M124 307v-120h-77v120h77z" />
    <glyph glyph-name="nbspace" unicode="&#xe001;" horiz-adv-x="185" 
 />
    <glyph glyph-name="commaaccent" unicode="&#xf6c3;" horiz-adv-x="500" 
d="M289 -47v-56q0 -92 -72 -108v22q30 14 30 51h-30v91h72z" />
    </font>
</defs>
</svg>
